<?xml version="1.0" encoding="utf-8"?>
<!-- Generator: Adobe Illustrator 21.1.0, SVG Export Plug-In . SVG Version: 6.00 Build 0)  -->
<svg version="1.1" id="Layer_1" xmlns="http://www.w3.org/2000/svg" xmlns:xlink="http://www.w3.org/1999/xlink" x="0px" y="0px"
	 viewBox="0 0 548 508.6" style="enable-background:new 0 0 548 508.6;" xml:space="preserve">
<style type="text/css">
	.st0{fill:#FFFFFF;}
	.st1{fill:#9CC184;}
	.st2{fill:none;stroke:#9CC184;stroke-width:1.0933;stroke-miterlimit:10;}
	.st3{opacity:0.7;}
	.st4{opacity:0.65;}
	.st5{opacity:0.25;}
	.st6{fill:#CFD1D3;}
	.st7{fill:none;stroke:#9CC184;stroke-width:1.8258;stroke-miterlimit:10;}
	.st8{fill:none;stroke:#9CC184;stroke-width:1.8258;stroke-linecap:round;stroke-linejoin:round;stroke-miterlimit:10;}
	.st9{fill:none;stroke:#000000;stroke-width:4.4737;stroke-linecap:round;stroke-linejoin:round;stroke-miterlimit:10;}
	.st10{fill:none;stroke:#9CC184;stroke-width:1.0434;stroke-miterlimit:10;}
	.st11{fill:none;stroke:#9CC184;stroke-width:1.0434;stroke-linecap:round;stroke-linejoin:round;stroke-miterlimit:10;}
	.st12{fill:none;stroke:#000000;stroke-width:2.5567;stroke-linecap:round;stroke-linejoin:round;stroke-miterlimit:10;}
	.st13{fill:none;stroke:#000000;stroke-width:3.7281;stroke-linecap:round;stroke-linejoin:round;stroke-miterlimit:10;}
	.st14{fill:none;stroke:#000000;stroke-width:4.4743;stroke-linecap:round;stroke-linejoin:round;stroke-miterlimit:10;}
	.st15{fill:none;stroke:#3A3537;stroke-width:3.047;stroke-linecap:round;stroke-linejoin:round;stroke-miterlimit:10;}
	.st16{fill:none;stroke:#3A3537;stroke-width:3.4863;stroke-linecap:round;stroke-linejoin:round;stroke-miterlimit:10;}
	.st17{fill:none;stroke:#000000;stroke-width:2.363;stroke-linecap:round;stroke-linejoin:round;stroke-miterlimit:10;}
	.st18{fill:none;stroke:#000000;stroke-width:1.9692;stroke-linecap:round;stroke-linejoin:round;stroke-miterlimit:10;}
	.st19{fill:none;stroke:#000000;stroke-width:2.3633;stroke-linecap:round;stroke-linejoin:round;stroke-miterlimit:10;}
	.st20{fill:none;stroke:#3A3537;stroke-width:1.6094;stroke-linecap:round;stroke-linejoin:round;stroke-miterlimit:10;}
	.st21{fill:none;stroke:#3A3537;stroke-width:1.8414;stroke-linecap:round;stroke-linejoin:round;stroke-miterlimit:10;}
	.st22{fill:none;stroke:#FFFFFF;stroke-width:1.8258;stroke-linecap:round;stroke-linejoin:round;stroke-miterlimit:10;}
	.st23{fill:none;stroke:#FFFFFF;stroke-width:1.3527;stroke-linecap:round;stroke-linejoin:round;stroke-miterlimit:10;}
	.st24{opacity:0.5;}
	.st25{fill:none;stroke:#000000;stroke-width:2.5563;stroke-linecap:round;stroke-linejoin:round;stroke-miterlimit:10;}
	.st26{opacity:0.5;fill:#CFD1D3;}
	.st27{opacity:0.35;}
	.st28{opacity:0.25;fill:#CFD1D3;}
	.st29{opacity:0.85;fill:#9CC184;}
	.st30{fill:#55705A;}
	.st31{fill:none;stroke:#9CC184;stroke-width:1.1751;stroke-miterlimit:10;}
	.st32{fill:none;stroke:#000000;stroke-width:2;stroke-linecap:round;stroke-linejoin:round;stroke-miterlimit:10;}
	.st33{fill:none;stroke:#000000;stroke-width:1.434;stroke-linecap:round;stroke-linejoin:round;stroke-miterlimit:10;}
	.st34{fill:none;stroke:#9CC184;stroke-width:1.101;stroke-miterlimit:10;}
	.st35{fill:none;stroke:#000000;stroke-width:4.437;stroke-linecap:round;stroke-linejoin:round;stroke-miterlimit:10;}
	.st36{clip-path:url(#SVGID_88_);}
	.st37{clip-path:url(#SVGID_90_);}
	.st38{clip-path:url(#SVGID_92_);}
	.st39{clip-path:url(#SVGID_100_);}
	.st40{clip-path:url(#SVGID_102_);}
	.st41{fill:none;stroke:#9CC184;stroke-width:0.3035;stroke-miterlimit:10;}
	.st42{fill:none;stroke:#9CC184;stroke-width:0.3035;stroke-linecap:round;stroke-linejoin:round;stroke-miterlimit:10;}
	.st43{fill:none;stroke:#000000;stroke-width:0.7437;stroke-linecap:round;stroke-linejoin:round;stroke-miterlimit:10;}
	.st44{fill:none;stroke:#000000;stroke-width:0.6198;stroke-linecap:round;stroke-linejoin:round;stroke-miterlimit:10;}
	.st45{fill:none;stroke:#000000;stroke-width:0.7438;stroke-linecap:round;stroke-linejoin:round;stroke-miterlimit:10;}
	.st46{fill:none;stroke:#3A3537;stroke-width:0.5065;stroke-linecap:round;stroke-linejoin:round;stroke-miterlimit:10;}
	.st47{fill:none;stroke:#3A3537;stroke-width:0.5796;stroke-linecap:round;stroke-linejoin:round;stroke-miterlimit:10;}
	.st48{fill:none;stroke:#FFFFFF;stroke-width:0.3035;stroke-linecap:round;stroke-linejoin:round;stroke-miterlimit:10;}
	.st49{fill:none;stroke:#9CC184;stroke-width:0.304;stroke-miterlimit:10;}
	.st50{fill:none;stroke:#9CC184;stroke-width:0.304;stroke-linecap:round;stroke-linejoin:round;stroke-miterlimit:10;}
	.st51{fill:none;stroke:#FFFFFF;stroke-width:0.304;stroke-linecap:round;stroke-linejoin:round;stroke-miterlimit:10;}
</style>
<g>
	<g>
		<g>
			<path class="st0" d="M123.4,362.4l0,15.8l-5.1,0.5l0-37.8l10.8-1c2.4-0.2,4.5-0.2,6.3,0.2c1.8,0.3,3.2,0.9,4.4,1.7
				c1.1,0.8,2,1.8,2.5,3.1c0.5,1.2,0.8,2.7,0.8,4.3c0,1.3-0.2,2.6-0.6,3.8c-0.4,1.2-1,2.3-1.8,3.3c-0.8,1-1.8,1.9-3,2.6
				c-1.2,0.8-2.5,1.4-3.9,1.8c0.6,0.3,1.2,0.8,1.7,1.5l11.1,14l-4.6,0.4c-0.9,0.1-1.6-0.2-2.1-0.9l-9.9-12.6c-0.3-0.4-0.6-0.7-1-0.8
				c-0.4-0.2-0.9-0.2-1.6-0.1L123.4,362.4z M123.4,358.6l5.4-0.5c1.5-0.1,2.8-0.4,4-0.9c1.1-0.5,2.1-1.1,2.9-1.8
				c0.8-0.7,1.3-1.6,1.7-2.5c0.4-0.9,0.6-2,0.6-3.1c0-2.2-0.8-3.9-2.3-4.9c-1.5-1-3.7-1.4-6.7-1.1l-5.6,0.5L123.4,358.6z"/>
			<path class="st0" d="M198.5,352.6c0,2.8-0.4,5.5-1.3,7.9s-2.2,4.6-3.8,6.4c-1.6,1.9-3.6,3.3-5.9,4.5c-2.3,1.1-4.9,1.8-7.7,2.1
				c-2.8,0.2-5.4,0-7.7-0.7s-4.3-1.9-5.9-3.4c-1.7-1.6-2.9-3.5-3.8-5.8s-1.4-4.8-1.4-7.7c0-2.8,0.4-5.5,1.3-7.9
				c0.9-2.4,2.2-4.6,3.8-6.5c1.6-1.9,3.6-3.4,5.9-4.5s4.9-1.9,7.7-2.1s5.4,0,7.7,0.7c2.3,0.7,4.3,1.9,6,3.5c1.7,1.6,2.9,3.5,3.8,5.8
				C198,347.2,198.5,349.8,198.5,352.6z M193.2,353.1c0-2.3-0.3-4.4-1-6.2c-0.6-1.8-1.5-3.3-2.7-4.4c-1.2-1.2-2.6-2-4.3-2.6
				c-1.7-0.5-3.5-0.7-5.6-0.5c-2,0.2-3.9,0.7-5.6,1.5c-1.7,0.8-3.1,1.9-4.3,3.3c-1.2,1.4-2.1,3-2.7,4.9c-0.6,1.9-1,4-1,6.3
				s0.3,4.4,1,6.2c0.6,1.8,1.6,3.3,2.7,4.4s2.6,2,4.3,2.5c1.7,0.5,3.5,0.7,5.6,0.5c2.1-0.2,3.9-0.7,5.6-1.5c1.7-0.8,3.1-1.9,4.3-3.3
				c1.2-1.4,2.1-3,2.7-4.9C192.9,357.5,193.2,355.4,193.2,353.1z"/>
			<path class="st0" d="M248,367.1l-4,0.4c-0.5,0-0.8,0-1.1-0.2c-0.3-0.2-0.5-0.5-0.6-0.8l-3.6-8.8l-17.1,1.5l-3.6,9.4
				c-0.1,0.3-0.3,0.6-0.6,0.9c-0.3,0.3-0.7,0.4-1.1,0.5l-4,0.4l15.2-39.1l5.2-0.5L248,367.1z M223,355.3l14.2-1.3l-6-14.8
				c-0.4-0.9-0.8-2.1-1.1-3.5c-0.2,0.7-0.4,1.4-0.6,2c-0.2,0.6-0.4,1.2-0.5,1.6L223,355.3z"/>
			<path class="st0" d="M284.6,332c-0.2,0.3-0.3,0.5-0.5,0.6c-0.2,0.1-0.4,0.2-0.7,0.3c-0.3,0-0.7-0.1-1.1-0.4
				c-0.4-0.3-0.9-0.5-1.5-0.9c-0.6-0.3-1.3-0.6-2.2-0.8c-0.9-0.2-1.9-0.3-3.1-0.2c-1.2,0.1-2.2,0.3-3.1,0.7
				c-0.9,0.4-1.6,0.9-2.2,1.4c-0.6,0.6-1,1.2-1.3,2c-0.3,0.7-0.5,1.5-0.4,2.3c0,1.1,0.3,1.9,0.8,2.6c0.5,0.6,1.2,1.2,2.1,1.6
				c0.9,0.4,1.8,0.8,2.9,1c1.1,0.3,2.2,0.5,3.4,0.8c1.1,0.3,2.3,0.6,3.4,1s2.1,0.9,2.9,1.6c0.9,0.7,1.6,1.5,2.1,2.5
				c0.5,1,0.8,2.3,0.8,3.9c0,1.7-0.3,3.2-0.8,4.7c-0.6,1.5-1.4,2.8-2.5,4c-1.1,1.2-2.4,2.1-4,2.9c-1.6,0.8-3.4,1.2-5.4,1.4
				c-2.5,0.2-4.7,0-6.7-0.7c-2-0.7-3.8-1.8-5.2-3.1l1.5-2.6c0.1-0.2,0.3-0.4,0.5-0.5c0.2-0.1,0.4-0.2,0.7-0.3c0.4,0,0.8,0.1,1.3,0.5
				c0.5,0.4,1.1,0.7,1.8,1.1c0.7,0.4,1.6,0.8,2.6,1.1c1,0.3,2.3,0.4,3.7,0.3c1.2-0.1,2.3-0.4,3.3-0.8c1-0.4,1.8-1,2.4-1.6
				c0.7-0.7,1.2-1.4,1.5-2.3c0.4-0.9,0.5-1.8,0.5-2.9c0-1.1-0.3-2.1-0.8-2.7c-0.5-0.7-1.2-1.2-2.1-1.6c-0.9-0.4-1.8-0.7-2.9-1
				c-1.1-0.2-2.2-0.5-3.4-0.8c-1.1-0.3-2.3-0.6-3.4-1c-1.1-0.4-2.1-0.9-2.9-1.6s-1.5-1.6-2.1-2.7c-0.5-1.1-0.8-2.5-0.8-4.1
				c0-1.3,0.3-2.7,0.8-3.9c0.5-1.3,1.3-2.5,2.3-3.5c1-1.1,2.2-1.9,3.7-2.6c1.5-0.7,3.1-1.1,5-1.3c2.1-0.2,4.1,0,5.8,0.5
				s3.3,1.3,4.6,2.5L284.6,332z"/>
			<path class="st0" d="M331.5,321.9l0,4.3l-12.3,1.1l0,33.5l-5.2,0.5l0-33.5l-12.4,1.1l0-4.3L331.5,321.9z"/>
			<path class="st0" d="M372.6,318.3l0,4.2l-18.3,1.6l0,12.5l14.8-1.3l0,4l-14.8,1.3l0,12.9l18.3-1.6l0,4.2l-23.5,2.1l0-37.8
				L372.6,318.3z"/>
			<path class="st0" d="M398,338l0,15.8l-5.1,0.5l0-37.8l10.8-1c2.4-0.2,4.5-0.2,6.3,0.2c1.8,0.3,3.2,0.9,4.4,1.7
				c1.1,0.8,2,1.8,2.5,3.1c0.6,1.2,0.8,2.7,0.8,4.3c0,1.3-0.2,2.6-0.6,3.8c-0.4,1.2-1,2.3-1.8,3.3c-0.8,1-1.8,1.9-3,2.6
				c-1.2,0.8-2.5,1.4-3.9,1.8c0.6,0.3,1.2,0.8,1.7,1.5l11.1,14l-4.6,0.4c-0.9,0.1-1.6-0.2-2.1-0.9l-9.9-12.6c-0.3-0.4-0.6-0.7-1-0.8
				c-0.4-0.2-0.9-0.2-1.6-0.1L398,338z M398,334.3l5.4-0.5c1.5-0.1,2.8-0.4,4-0.9c1.1-0.5,2.1-1.1,2.9-1.8c0.8-0.7,1.4-1.6,1.7-2.5
				c0.4-0.9,0.6-2,0.6-3.1c0-2.2-0.8-3.9-2.3-4.9c-1.5-1-3.7-1.4-6.7-1.1L398,320L398,334.3z"/>
			<path class="st0" d="M458.3,316.6c-0.2,0.3-0.3,0.5-0.5,0.6c-0.2,0.1-0.4,0.2-0.7,0.3c-0.3,0-0.7-0.1-1.1-0.4
				c-0.4-0.3-0.9-0.5-1.5-0.9c-0.6-0.3-1.3-0.6-2.2-0.8c-0.9-0.2-1.9-0.3-3.1-0.2c-1.2,0.1-2.2,0.3-3.1,0.7
				c-0.9,0.4-1.6,0.9-2.2,1.4c-0.6,0.6-1,1.2-1.3,2c-0.3,0.7-0.5,1.5-0.4,2.3c0,1.1,0.3,1.9,0.8,2.6c0.5,0.6,1.2,1.2,2.1,1.6
				c0.9,0.4,1.8,0.8,2.9,1s2.2,0.5,3.4,0.8c1.1,0.3,2.3,0.6,3.4,1c1.1,0.4,2.1,0.9,2.9,1.6c0.9,0.7,1.6,1.5,2.1,2.5
				c0.5,1,0.8,2.3,0.8,3.9c0,1.7-0.3,3.2-0.8,4.7s-1.4,2.8-2.5,4c-1.1,1.2-2.4,2.1-4,2.9c-1.6,0.8-3.4,1.2-5.4,1.4
				c-2.5,0.2-4.7,0-6.7-0.7c-2-0.7-3.8-1.8-5.2-3.1l1.5-2.6c0.1-0.2,0.3-0.4,0.5-0.5c0.2-0.1,0.4-0.2,0.7-0.3c0.4,0,0.8,0.1,1.3,0.5
				c0.5,0.4,1.1,0.7,1.8,1.1c0.7,0.4,1.6,0.8,2.6,1.1c1,0.3,2.3,0.4,3.7,0.3c1.2-0.1,2.3-0.4,3.3-0.8c1-0.4,1.8-1,2.4-1.6
				c0.7-0.7,1.2-1.4,1.5-2.3c0.4-0.9,0.5-1.8,0.5-2.9c0-1.1-0.3-2.1-0.8-2.7c-0.5-0.7-1.2-1.2-2.1-1.7c-0.9-0.4-1.8-0.7-2.9-1
				s-2.2-0.5-3.4-0.8s-2.3-0.6-3.4-1s-2.1-0.9-2.9-1.6c-0.9-0.7-1.5-1.6-2.1-2.7c-0.5-1.1-0.8-2.5-0.8-4.1c0-1.3,0.3-2.7,0.8-3.9
				c0.5-1.3,1.3-2.5,2.3-3.5c1-1.1,2.2-1.9,3.7-2.6c1.5-0.7,3.1-1.1,5-1.3c2.1-0.2,4.1,0,5.8,0.5c1.8,0.5,3.3,1.3,4.6,2.5
				L458.3,316.6z"/>
		</g>
	</g>
	<g>
		<ellipse class="st0" cx="256.9" cy="434.5" rx="8.6" ry="10.9"/>
		<ellipse class="st0" cx="275.2" cy="416.6" rx="8.6" ry="10.9"/>
		<ellipse class="st0" cx="298.3" cy="416.6" rx="8.6" ry="10.9"/>
		<ellipse class="st0" cx="316.5" cy="434.5" rx="8.6" ry="10.9"/>
		<path class="st0" d="M308.9,457.8L308.9,457.8l-0.1-0.2c-0.1-0.2-0.2-0.3-0.3-0.5l-11-17.2l0,0c-2-3.7-6.4-6.3-11.5-6.3
			c-5.1,0-9.5,2.6-11.5,6.4l0-0.1L263.6,457c-0.2,0.2-0.3,0.4-0.4,0.7l-0.1,0.1l0,0c-0.8,1.4-1.3,3-1.3,4.7c0,6,5.6,10.8,12.6,10.8
			c0.2,0,0.5,0,0.7,0l0,0h22.5c7,0,12.6-4.8,12.6-10.8C310.2,460.8,309.7,459.2,308.9,457.8z"/>
	</g>
	<path class="st0" d="M49.5,86.5L49.5,86.5l466.8-46.2c1.1-0.2,1.9-1.1,2-2.1v-3.7c-0.1-1.4-1.4-2.2-2.7-2L49,78.7l0,0
		c-1.1,0.1-1.9,1-2,2v3.8C47.1,85.8,48.3,86.7,49.5,86.5z"/>
	<g>
		<path class="st0" d="M139.3,207.3L139.3,207.3c1.3-0.2,2.1-1.2,2-2.6l0,0l0.4-64.5h0c-0.1-1.3-1.1-2.3-2.4-2.2l0,0l-11.6,1.1
			c-1.3,0.1-2.3,1.2-2.2,2.5h0l-0.4,64.7c0,1.4,1.2,2.3,2.5,2.2l0,0L139.3,207.3z"/>
		<path class="st0" d="M500.8,202.9L500.8,202.9c-0.2-1.3-1.3-2.2-2.6-2l0,0l-39.9,3.9v0c-1.3,0.1-2.3,1.2-2.2,2.5h0l-0.4,64.8h0
			c0.1,1.3,1.2,2.3,2.5,2.2v0l40.1-3.9l0,0c1.3-0.1,2.2-1.2,2.1-2.6l0.1-7.6h0c-0.1-1.3-1.2-2.2-2.5-2.2l-26,2.5l0.1-16.5l19.8-1.9
			c1.1-0.1,1.9-1,2-2.1l0-0.4c0,0,0-0.1,0-0.1l0,0l0.1-7.2c0-1.3-1.3-2.2-2.6-2l-19.2,1.9l0.1-16.2l26.5-2.6l0,0c1.1-0.1,2-1,2-2.1
			l0,0c0-0.2,0-0.3,0-0.5l0,0L500.8,202.9z"/>
		<path class="st0" d="M429.2,210.1L429.2,210.1c-0.2-1.3-1.3-2.2-2.6-2l0,0l-39.9,3.9v0c-1.3,0.1-2.3,1.2-2.2,2.5h0l-0.4,64.8h0
			c0.1,1.3,1.2,2.3,2.5,2.2v0l40.1-3.9l0,0c1.3-0.1,2.2-1.2,2.1-2.6l0.1-7.6h0c-0.1-1.3-1.2-2.2-2.5-2.2l-26,2.5l0.1-16.5l19.8-1.9
			c1.1-0.1,1.9-1,2-2.1l0-0.4c0,0,0-0.1,0-0.1l0,0l0.1-7.2c0-1.3-1.3-2.2-2.6-2l-19.2,1.9l0.1-16.2l26.5-2.6l0,0c1.1-0.1,2-1,2-2.1
			l0,0c0-0.2,0-0.3,0-0.5l0,0L429.2,210.1z"/>
		<path class="st0" d="M354.7,217c-0.2-1.2-1.3-2.1-2.5-2l-40.3,4.2c-1.1,0.2-1.9,1-2,2.1v0.4c0,0,0,0.1,0,0.1h0v64.9h0
			c0.2,1.2,1.2,2,2.4,2l11.9-1.2c1.1-0.2,2-1.2,1.9-2.4l0,0v-24.8l21.7-2.3l0,0c1.1-0.1,1.9-1,2-2v-8.3h0c-0.2-1.3-1.3-2.2-2.6-2
			l-21.1,2.2v-17.6l26.5-2.8l0,0c1.1-0.1,1.9-1,2-2.1v-0.3c0-0.1,0-0.1,0-0.2h0V217z"/>
		<path class="st0" d="M214.6,263.5c0,5-0.9,9.8-2.6,14.3c-1.7,4.5-4.2,8.5-7.3,12s-6.9,6.4-11.4,8.7c-4.4,2.3-9.4,3.7-14.8,4.3
			c-5.4,0.6-10.3,0.2-14.8-1.2c-4.5-1.3-8.3-3.4-11.4-6.3c-3.2-2.9-5.6-6.4-7.3-10.5c-1.7-4.1-2.6-8.7-2.6-13.7
			c0-5,0.9-9.8,2.6-14.3c1.7-4.5,4.2-8.5,7.3-12c3.2-3.5,7-6.4,11.4-8.7c4.4-2.3,9.4-3.7,14.8-4.3c5.4-0.6,10.3-0.2,14.8,1.2
			c4.4,1.4,8.2,3.5,11.4,6.3c3.1,2.8,5.6,6.3,7.3,10.5C213.7,254,214.6,258.5,214.6,263.5z M198.1,265.3c0-3.4-0.4-6.5-1.3-9.1
			c-0.9-2.7-2.2-4.9-3.8-6.6c-1.7-1.7-3.7-3-6.1-3.7c-2.4-0.8-5.2-1-8.2-0.7c-3.1,0.3-5.9,1.1-8.3,2.4c-2.4,1.3-4.5,2.9-6.2,5
			c-1.7,2.1-2.9,4.5-3.8,7.4c-0.9,2.8-1.3,6-1.3,9.4c0,3.5,0.4,6.5,1.3,9.2c0.9,2.7,2.2,4.9,3.8,6.6c1.7,1.7,3.7,3,6.2,3.7
			c2.4,0.7,5.2,1,8.3,0.6c3.1-0.3,5.8-1.1,8.2-2.4c2.4-1.3,4.5-2.9,6.1-5c1.7-2.1,2.9-4.5,3.8-7.4
			C197.6,271.9,198.1,268.7,198.1,265.3z"/>
		<path class="st0" d="M231.2,128.7L231.2,128.7l-10,1c-1.2,0.2-2.1,1.2-2,2.4h0l-0.2,34.5c0,1.1,0,2.3,0.1,3.5
			c0.1,1.3,0.1,2.5,0.3,3.9l-32.7-38.5c-0.4-0.5-0.8-0.9-1.2-1.2c-0.3-0.3-0.7-0.5-1.1-0.6c-0.4-0.1-0.8-0.2-1.3-0.2
			c-0.5,0-1.1,0-1.8,0.1l-6.5,0.6c-1.2,0.2-2.1,1.2-2,2.4h0l-0.5,65c0,1.3,1.2,2,2.4,2l9.6-0.9l0,0c1.3-0.1,2.2-1.1,2.2-2.5l0,0
			l0.2-34.9c0-1,0-2.1-0.1-3.3c-0.1-1.2-0.1-2.3-0.2-3.5l32.5,38.2c0.8,0.9,1.6,1.6,2.5,1.9c0.9,0.3,1.9,0.4,3.1,0.3l6-0.6
			c1.1-0.1,2.4-0.5,2.5-2l0.4-65C233.5,129.9,232.5,128.8,231.2,128.7z"/>
		<path class="st0" d="M322.3,140.7c-1.7-4.1-4.1-7.5-7.2-10.3c-3.1-2.8-6.9-4.8-11.3-6.1c-4.4-1.3-9.3-1.7-14.7-1.2l-24.9,2.4l0,0
			c-1.1,0.1-1.9,0.9-2.1,1.9l-0.5,65.3c0.1,1.4,1.2,2.2,2.4,2.2l24.6-2.4c5.4-0.5,10.3-1.9,14.8-4c4.4-2.2,8.3-5,11.4-8.4
			c3.2-3.4,5.6-7.3,7.4-11.7c1.8-4.4,2.7-9.1,2.7-14.2C324.8,149.3,324,144.8,322.3,140.7z M306.9,165.4c-0.9,2.9-2.2,5.3-3.9,7.4
			c-1.7,2.1-3.7,3.8-6.2,5c-2.4,1.3-5.2,2.1-8.3,2.4l-10.8,1.1l0.3-44.7l10.8-1.1c3.1-0.3,5.8-0.1,8.2,0.7c2.4,0.8,4.4,2.1,6.1,3.8
			c1.7,1.8,2.9,4,3.8,6.7c0.9,2.7,1.3,5.7,1.3,9.2C308.2,159.4,307.8,162.6,306.9,165.4z"/>
		<path class="st0" d="M362.7,185.5L362.7,185.5c1.3-0.2,2.1-1.2,2-2.6l0,0l0.4-64.5h0c-0.1-1.3-1.1-2.3-2.4-2.2l0,0l-11.6,1.1
			c-1.3,0.1-2.3,1.2-2.2,2.5h0l-0.4,64.7c0,1.4,1.2,2.3,2.5,2.2l0,0L362.7,185.5z"/>
		<path class="st0" d="M440.9,110.9L440.9,110.9c-0.2-1.3-1.3-2.2-2.6-2l0,0l-39.9,3.9v0c-1.3,0.1-2.3,1.2-2.2,2.5h0l-0.4,64.8h0
			c0.1,1.3,1.2,2.3,2.5,2.2v0l40.1-3.9l0,0c1.3-0.1,2.2-1.2,2.1-2.6l0.1-7.6h0c-0.1-1.3-1.2-2.2-2.5-2.2l-26,2.5l0.1-16.5L432,150
			c1.1-0.1,1.9-1,2-2.1l0-0.4c0,0,0-0.1,0-0.1l0,0l0.1-7.2c0-1.3-1.3-2.2-2.6-2l-19.2,1.9l0.1-16.2l26.5-2.6l0,0c1.1-0.1,2-1,2-2.1
			l0,0c0-0.2,0-0.3,0-0.5l0,0L440.9,110.9z"/>
		<path class="st0" d="M283.3,223.9c-0.2-1.2-1.3-2.1-2.5-2l-40.3,4.2c-1.1,0.2-1.9,1-2,2.1v0.4c0,0,0,0.1,0,0.1h0v64.9h0
			c0.2,1.2,1.2,2,2.4,2l11.9-1.2c1.1-0.2,2-1.2,1.9-2.4l0,0v-24.8l21.7-2.3l0,0c1.1-0.1,1.9-1,2-2v-8.3h0c-0.2-1.3-1.3-2.2-2.6-2
			l-21.1,2.2v-17.6l26.5-2.8l0,0c1.1-0.1,1.9-1,2-2.1v-0.3c0-0.1,0-0.1,0-0.2h0V223.9z"/>
		<g>
			<path class="st0" d="M116.2,290.1c0.4,0,0.8,0,1.2,0.1c0.4,0.1,0.8,0.3,1.2,0.7l5.7,5.3c0.7,0.6,0.7,1.7,0.2,2.4
				c-2.5,3.2-5.5,5.8-9.2,7.7c-4.1,2.1-9.1,3.4-14.9,3.7c-5.3,0.3-10.2-0.3-14.5-1.8c-4.3-1.5-8.1-3.8-11.2-6.8
				c-3.1-3-5.6-6.6-7.5-10.9c-1.8-4.3-2.9-9-3.3-14.1c-0.3-5.2,0.3-10.1,1.8-14.5c1.5-4.5,3.8-8.4,6.8-11.8c3-3.4,6.7-6.1,11.1-8.1
				c4.4-2,9.3-3.2,14.7-3.6c2.6-0.2,5.1-0.1,7.5,0.2c2.4,0.3,4.6,0.8,6.7,1.5c2.1,0.7,4,1.5,5.8,2.6c1.2,0.7,2.3,1.4,3.3,2.2
				c0.8,0.7,1,1.9,0.4,2.8l-4,6.1c-0.3,0.5-0.7,0.9-1.2,1.3c-0.5,0.5-1.3,0.7-2.4,0.7c-0.3,0-0.6-0.1-0.9-0.2
				c-0.6-0.2-1.3-0.6-2-0.9c-0.6-0.3-1.3-0.7-2-1.1c-0.7-0.4-1.6-0.7-2.5-1c-1-0.3-2.1-0.6-3.4-0.7c-1.3-0.2-2.8-0.2-4.5-0.1
				c-3,0.2-5.6,0.9-8,2.1c-2.4,1.2-4.4,2.8-6,4.9c-1.6,2-2.9,4.5-3.7,7.3c-0.8,2.8-1.1,5.9-0.9,9.3c0.2,3.6,0.9,6.7,2.1,9.5
				c1.2,2.7,2.6,5,4.4,6.8c1.8,1.8,3.9,3.1,6.2,4c2.3,0.9,4.8,1.2,7.3,1c1.5-0.1,2.8-0.2,4-0.5c1.2-0.2,2.3-0.5,3.4-1
				c1-0.4,2-0.9,2.9-1.6c0.9-0.6,1.8-1.4,2.7-2.3c0.4-0.3,0.8-0.6,1.2-0.9C115.2,290.3,115.7,290.1,116.2,290.1z"/>
		</g>
	</g>
	<g>
		<path class="st0" d="M222.2,439.3c0-1.6-1.4-2.8-3-2.7L49,453.5l0,0c-1.1,0.1-1.9,1-2,2v3.8c0.2,1.3,1.3,2.1,2.6,2l0,0l170-16.8
			c1.5-0.1,2.6-1.4,2.6-2.9V439.3z"/>
		<path class="st0" d="M515.6,407.3l-164.2,16.3c-1.7,0.2-3,1.6-3,3.3v1.4c0,1.9,1.6,3.3,3.5,3.1l164.4-16.3c1.1-0.2,1.9-1.1,2-2.1
			v-3.7C518.2,407.9,516.9,407.1,515.6,407.3z"/>
	</g>
</g>
</svg>
