<svg xmlns="http://www.w3.org/2000/svg" viewBox="0 0 161.59 107.26"><defs><style>.cls-1{fill:none;stroke:#000;stroke-linecap:round;stroke-linejoin:round;stroke-width:4.44px;}</style></defs><title>flexibility</title><g id="Layer_2" data-name="Layer 2"><g id="Layer_1-2" data-name="Layer 1"><ellipse class="cls-1" cx="38.07" cy="96.16" rx="35.85" ry="8.88"/><ellipse class="cls-1" cx="38.07" cy="81.97" rx="8.88" ry="35.85" transform="translate(-49.58 104.04) rotate(-79.22)"/><ellipse class="cls-1" cx="41.41" cy="69.93" rx="8.88" ry="35.85" transform="translate(-39.85 70.83) rotate(-60)"/><ellipse class="cls-1" cx="48.76" cy="55.85" rx="8.88" ry="35.85" transform="translate(-25.21 50.84) rotate(-45)"/><ellipse class="cls-1" cx="58.12" cy="45.08" rx="8.88" ry="35.85" transform="translate(-14.75 35.1) rotate(-30)"/><ellipse class="cls-1" cx="67.79" cy="39.1" rx="8.88" ry="35.85" transform="translate(-6.52 14.57) rotate(-11.71)"/><ellipse class="cls-1" cx="123.52" cy="96.16" rx="35.85" ry="8.88"/><ellipse class="cls-1" cx="123.52" cy="81.97" rx="35.85" ry="8.88" transform="translate(-13.15 24.55) rotate(-10.78)"/><ellipse class="cls-1" cx="120.18" cy="69.93" rx="35.85" ry="8.88" transform="translate(-18.86 69.46) rotate(-30)"/><ellipse class="cls-1" cx="112.83" cy="55.85" rx="35.85" ry="8.88" transform="translate(-6.44 96.14) rotate(-45)"/><ellipse class="cls-1" cx="103.47" cy="45.08" rx="35.85" ry="8.88" transform="matrix(0.5, -0.87, 0.87, 0.5, 12.69, 112.15)"/><ellipse class="cls-1" cx="93.81" cy="39.1" rx="35.85" ry="8.88" transform="translate(36.49 123.02) rotate(-78.29)"/><ellipse class="cls-1" cx="80.69" cy="38.07" rx="8.88" ry="35.85"/><circle cx="119.14" cy="42.97" r="1.17"/><circle cx="123.61" cy="39.5" r="1.17"/><circle cx="123.61" cy="46.24" r="1.17"/><circle cx="123.61" cy="52.98" r="1.17"/><circle cx="128.17" cy="36.24" r="1.17"/><circle cx="128.17" cy="42.97" r="1.17"/><circle cx="128.17" cy="49.71" r="1.17"/><circle cx="132.62" cy="32.76" r="1.17"/><circle cx="132.62" cy="39.5" r="1.17"/><circle cx="132.62" cy="46.24" r="1.17"/><circle cx="137.18" cy="29.5" r="1.17"/><circle cx="137.18" cy="36.24" r="1.17"/><circle cx="112.23" cy="21.58" r="1.17"/><circle cx="116.7" cy="18.11" r="1.17"/><circle cx="116.7" cy="24.85" r="1.17"/><circle cx="116.7" cy="31.59" r="1.17"/><circle cx="121.26" cy="14.85" r="1.17"/><circle cx="121.26" cy="21.58" r="1.17"/><circle cx="121.26" cy="28.32" r="1.17"/><circle cx="112.23" cy="28.32" r="1.17"/><circle cx="133.25" cy="59.72" r="1.17"/><circle cx="128.8" cy="63.19" r="1.17"/><circle cx="128.8" cy="69.93" r="1.17"/><circle cx="133.25" cy="66.46" r="1.17"/><circle cx="128.8" cy="57.13" r="1.17"/><circle cx="137.81" cy="56.45" r="1.17"/><circle cx="137.81" cy="63.19" r="1.17"/><circle cx="133.37" cy="53.86" r="1.17"/><circle cx="142.26" cy="52.98" r="1.17"/><circle cx="142.26" cy="59.72" r="1.17"/><circle cx="146.82" cy="49.71" r="1.17"/><circle cx="146.82" cy="56.45" r="1.17"/><circle cx="137.81" cy="76" r="1.17"/><circle cx="142.26" cy="79.02" r="1.17"/><circle cx="137.81" cy="82.28" r="1.17"/><circle cx="132.98" cy="72.85" r="1.17"/><circle cx="133.37" cy="86.11" r="1.17"/><circle cx="132.98" cy="79.14" r="1.17"/><circle cx="142.26" cy="85.76" r="1.17"/><circle cx="146.73" cy="75.54" r="1.17"/><circle cx="146.73" cy="82.28" r="1.17"/><circle cx="142.28" cy="72.95" r="1.17"/><circle cx="151.29" cy="72.28" r="1.17"/><circle cx="151.29" cy="79.02" r="1.17"/><circle cx="155.74" cy="75.54" r="1.17"/><circle cx="141.16" cy="92.18" r="1.17"/><circle cx="145.6" cy="95.2" r="1.17"/><circle cx="136.01" cy="95.2" r="1.17"/><circle cx="141.09" cy="98.47" r="1.17"/><circle cx="145.6" cy="101.94" r="1.17"/><circle cx="136.01" cy="101.94" r="1.17"/><circle cx="150.07" cy="91.73" r="1.17"/><circle cx="150.07" cy="98.47" r="1.17"/><circle cx="145.63" cy="89.13" r="1.17"/><circle cx="154.64" cy="95.2" r="1.17"/></g></g></svg>