<?xml version="1.0" encoding="utf-8"?>
<!-- Generator: Adobe Illustrator 21.1.0, SVG Export Plug-In . SVG Version: 6.00 Build 0)  -->
<svg version="1.1" id="Layer_1" xmlns="http://www.w3.org/2000/svg" xmlns:xlink="http://www.w3.org/1999/xlink" x="0px" y="0px"
	 viewBox="0 0 205.1 205.1" style="enable-background:new 0 0 205.1 205.1;" xml:space="preserve">
<style type="text/css">
	.st0{opacity:0.7;}
	.st1{opacity:0.25;}
	.st2{fill:#CFD1D3;}
	.st3{fill:#9CC184;}
	.st4{opacity:0.65;}
	.st5{fill:#FFFFFF;}
	.st6{fill:none;stroke:#9CC184;stroke-width:1.8258;stroke-miterlimit:10;}
	.st7{fill:none;stroke:#9CC184;stroke-width:1.8258;stroke-linecap:round;stroke-linejoin:round;stroke-miterlimit:10;}
	.st8{fill:none;stroke:#000000;stroke-width:4.4737;stroke-linecap:round;stroke-linejoin:round;stroke-miterlimit:10;}
	.st9{fill:none;stroke:#9CC184;stroke-width:1.0434;stroke-miterlimit:10;}
	.st10{fill:none;stroke:#9CC184;stroke-width:1.0434;stroke-linecap:round;stroke-linejoin:round;stroke-miterlimit:10;}
	.st11{fill:none;stroke:#000000;stroke-width:2.5567;stroke-linecap:round;stroke-linejoin:round;stroke-miterlimit:10;}
	.st12{fill:none;stroke:#000000;stroke-width:3.7281;stroke-linecap:round;stroke-linejoin:round;stroke-miterlimit:10;}
	.st13{fill:none;stroke:#000000;stroke-width:4.4743;stroke-linecap:round;stroke-linejoin:round;stroke-miterlimit:10;}
	.st14{fill:none;stroke:#3A3537;stroke-width:3.047;stroke-linecap:round;stroke-linejoin:round;stroke-miterlimit:10;}
	.st15{fill:none;stroke:#3A3537;stroke-width:3.4863;stroke-linecap:round;stroke-linejoin:round;stroke-miterlimit:10;}
	.st16{fill:none;stroke:#000000;stroke-width:2.363;stroke-linecap:round;stroke-linejoin:round;stroke-miterlimit:10;}
	.st17{fill:none;stroke:#000000;stroke-width:1.9692;stroke-linecap:round;stroke-linejoin:round;stroke-miterlimit:10;}
	.st18{fill:none;stroke:#000000;stroke-width:2.3633;stroke-linecap:round;stroke-linejoin:round;stroke-miterlimit:10;}
	.st19{fill:none;stroke:#3A3537;stroke-width:1.6094;stroke-linecap:round;stroke-linejoin:round;stroke-miterlimit:10;}
	.st20{fill:none;stroke:#3A3537;stroke-width:1.8414;stroke-linecap:round;stroke-linejoin:round;stroke-miterlimit:10;}
	.st21{fill:none;stroke:#FFFFFF;stroke-width:1.8258;stroke-linecap:round;stroke-linejoin:round;stroke-miterlimit:10;}
	.st22{fill:none;stroke:#FFFFFF;stroke-width:1.3527;stroke-linecap:round;stroke-linejoin:round;stroke-miterlimit:10;}
	.st23{opacity:0.5;}
	.st24{fill:none;stroke:#000000;stroke-width:2.5563;stroke-linecap:round;stroke-linejoin:round;stroke-miterlimit:10;}
	.st25{opacity:0.5;fill:#CFD1D3;}
	.st26{opacity:0.35;}
	.st27{opacity:0.25;fill:#CFD1D3;}
	.st28{opacity:0.85;fill:#9CC184;}
	.st29{fill:#55705A;}
	.st30{fill:none;stroke:#000000;stroke-width:2;stroke-linecap:round;stroke-linejoin:round;stroke-miterlimit:10;}
	.st31{clip-path:url(#SVGID_56_);}
	.st32{fill:none;stroke:#000000;stroke-width:4.437;stroke-linecap:round;stroke-linejoin:round;stroke-miterlimit:10;}
	.st33{clip-path:url(#SVGID_58_);}
	.st34{clip-path:url(#SVGID_60_);}
</style>
<circle class="st5" cx="102.6" cy="102.6" r="102.6"/>
<g>
	<rect x="62.7" y="41.8" class="st32" width="82.5" height="111.2"/>
	<line class="st32" x1="77.8" y1="41.8" x2="77.8" y2="153"/>
	<polygon class="st32" points="92.8,174.5 83.4,170 73.9,174.5 73.9,153 92.8,153 	"/>
	<rect x="91.5" y="63.2" class="st32" width="40.6" height="18.9"/>
	<g>
		<circle cx="133.3" cy="121.8" r="1.2"/>
		<circle cx="133.3" cy="128.9" r="1.2"/>
		<circle cx="133.3" cy="136.1" r="1.2"/>
		<circle cx="138.1" cy="125.3" r="1.2"/>
		<circle cx="138.1" cy="132.4" r="1.2"/>
		<circle cx="138.1" cy="139.6" r="1.2"/>
		<circle cx="143" cy="121.8" r="1.2"/>
		<circle cx="143" cy="128.9" r="1.2"/>
		<circle cx="143" cy="136.1" r="1.2"/>
		<circle cx="133.3" cy="143.2" r="1.2"/>
		<circle cx="133.3" cy="150.4" r="1.2"/>
		<circle cx="138.1" cy="146.7" r="1.2"/>
		<circle cx="138.1" cy="153.9" r="1.2"/>
		<circle cx="143" cy="143.2" r="1.2"/>
		<circle cx="143" cy="150.4" r="1.2"/>
		<circle cx="133.3" cy="57.5" r="1.2"/>
		<circle cx="133.3" cy="64.6" r="1.2"/>
		<circle cx="133.3" cy="71.8" r="1.2"/>
		<circle cx="133.3" cy="78.9" r="1.2"/>
		<circle cx="133.3" cy="86.1" r="1.2"/>
		<circle cx="133.3" cy="93.2" r="1.2"/>
		<circle cx="133.3" cy="107.5" r="1.2"/>
		<circle cx="133.3" cy="114.7" r="1.2"/>
		<circle cx="138.1" cy="61" r="1.2"/>
		<circle cx="138.1" cy="68.1" r="1.2"/>
		<circle cx="138.1" cy="75.3" r="1.2"/>
		<circle cx="138.1" cy="82.4" r="1.2"/>
		<circle cx="138.1" cy="89.6" r="1.2"/>
		<circle cx="138.1" cy="96.7" r="1.2"/>
		<circle cx="138.1" cy="103.9" r="1.2"/>
		<circle cx="138.1" cy="111" r="1.2"/>
		<circle cx="138.1" cy="118.2" r="1.2"/>
		<circle cx="143" cy="57.5" r="1.2"/>
		<circle cx="143" cy="64.6" r="1.2"/>
		<circle cx="133.3" cy="43.2" r="1.2"/>
		<circle cx="133.3" cy="50.3" r="1.2"/>
		<circle cx="138.1" cy="46.6" r="1.2"/>
		<circle cx="138.1" cy="53.8" r="1.2"/>
		<circle cx="143" cy="43.2" r="1.2"/>
		<circle cx="133.3" cy="100.4" r="1.2"/>
		<circle cx="143" cy="50.3" r="1.2"/>
		<circle cx="143" cy="71.8" r="1.2"/>
		<circle cx="143" cy="78.9" r="1.2"/>
		<circle cx="143" cy="86.1" r="1.2"/>
		<circle cx="143" cy="93.2" r="1.2"/>
		<circle cx="143" cy="100.4" r="1.2"/>
		<circle cx="143" cy="107.5" r="1.2"/>
		<circle cx="143" cy="114.7" r="1.2"/>
	</g>
</g>
</svg>
