<?xml version="1.0" encoding="utf-8"?>
<!-- Generator: Adobe Illustrator 21.1.0, SVG Export Plug-In . SVG Version: 6.00 Build 0)  -->
<svg version="1.1" id="Layer_1" xmlns="http://www.w3.org/2000/svg" xmlns:xlink="http://www.w3.org/1999/xlink" x="0px" y="0px"
	 viewBox="0 0 205.1 205.1" style="enable-background:new 0 0 205.1 205.1;" xml:space="preserve">
<style type="text/css">
	.st0{opacity:0.7;}
	.st1{opacity:0.25;}
	.st2{fill:#CFD1D3;}
	.st3{fill:#9CC184;}
	.st4{opacity:0.65;}
	.st5{fill:#FFFFFF;}
	.st6{fill:none;stroke:#9CC184;stroke-width:1.8258;stroke-miterlimit:10;}
	.st7{fill:none;stroke:#9CC184;stroke-width:1.8258;stroke-linecap:round;stroke-linejoin:round;stroke-miterlimit:10;}
	.st8{fill:none;stroke:#000000;stroke-width:4.4737;stroke-linecap:round;stroke-linejoin:round;stroke-miterlimit:10;}
	.st9{fill:none;stroke:#9CC184;stroke-width:1.0434;stroke-miterlimit:10;}
	.st10{fill:none;stroke:#9CC184;stroke-width:1.0434;stroke-linecap:round;stroke-linejoin:round;stroke-miterlimit:10;}
	.st11{fill:none;stroke:#000000;stroke-width:2.5567;stroke-linecap:round;stroke-linejoin:round;stroke-miterlimit:10;}
	.st12{fill:none;stroke:#000000;stroke-width:3.7281;stroke-linecap:round;stroke-linejoin:round;stroke-miterlimit:10;}
	.st13{fill:none;stroke:#000000;stroke-width:4.4743;stroke-linecap:round;stroke-linejoin:round;stroke-miterlimit:10;}
	.st14{fill:none;stroke:#3A3537;stroke-width:3.047;stroke-linecap:round;stroke-linejoin:round;stroke-miterlimit:10;}
	.st15{fill:none;stroke:#3A3537;stroke-width:3.4863;stroke-linecap:round;stroke-linejoin:round;stroke-miterlimit:10;}
	.st16{fill:none;stroke:#000000;stroke-width:2.363;stroke-linecap:round;stroke-linejoin:round;stroke-miterlimit:10;}
	.st17{fill:none;stroke:#000000;stroke-width:1.9692;stroke-linecap:round;stroke-linejoin:round;stroke-miterlimit:10;}
	.st18{fill:none;stroke:#000000;stroke-width:2.3633;stroke-linecap:round;stroke-linejoin:round;stroke-miterlimit:10;}
	.st19{fill:none;stroke:#3A3537;stroke-width:1.6094;stroke-linecap:round;stroke-linejoin:round;stroke-miterlimit:10;}
	.st20{fill:none;stroke:#3A3537;stroke-width:1.8414;stroke-linecap:round;stroke-linejoin:round;stroke-miterlimit:10;}
	.st21{fill:none;stroke:#FFFFFF;stroke-width:1.8258;stroke-linecap:round;stroke-linejoin:round;stroke-miterlimit:10;}
	.st22{fill:none;stroke:#FFFFFF;stroke-width:1.3527;stroke-linecap:round;stroke-linejoin:round;stroke-miterlimit:10;}
	.st23{opacity:0.5;}
	.st24{fill:none;stroke:#000000;stroke-width:2.5563;stroke-linecap:round;stroke-linejoin:round;stroke-miterlimit:10;}
	.st25{opacity:0.5;fill:#CFD1D3;}
	.st26{opacity:0.35;}
	.st27{opacity:0.25;fill:#CFD1D3;}
	.st28{opacity:0.85;fill:#9CC184;}
	.st29{fill:#55705A;}
	.st30{fill:none;stroke:#000000;stroke-width:2;stroke-linecap:round;stroke-linejoin:round;stroke-miterlimit:10;}
	.st31{clip-path:url(#SVGID_56_);}
	.st32{fill:none;stroke:#000000;stroke-width:4.437;stroke-linecap:round;stroke-linejoin:round;stroke-miterlimit:10;}
	.st33{clip-path:url(#SVGID_58_);}
	.st34{clip-path:url(#SVGID_60_);}
</style>
<circle class="st5" cx="102.6" cy="102.6" r="102.6"/>
<g>
	<polygon class="st32" points="72.2,89.3 42.1,157.7 111.7,128 	"/>
	<polygon class="st32" points="121.9,43.9 127.3,48.5 134.2,46.7 131.5,53.3 135.4,59.3 128.3,58.7 123.8,64.3 122.1,57.3 
		115.4,54.8 121.5,51 	"/>
	<polygon class="st32" points="136.3,73 138.5,77.5 143.6,78.3 139.9,81.8 140.8,86.9 136.3,84.5 131.8,86.9 132.6,81.8 129,78.3 
		134,77.5 	"/>
	<circle class="st32" cx="163.4" cy="64.3" r="5.1"/>
	<circle class="st32" cx="104.1" cy="98.9" r="3.2"/>
	<circle class="st32" cx="109.8" cy="75.1" r="8.9"/>
	<path class="st32" d="M80.3,84c0,0,1.2-7.6,6.3-12.6c5.1-5,3.5-12.3-2-14c-5.5-1.8-9.6,5.9-2.3,7.2C89.6,66,93.6,48.4,86,44.3
		s-12.7,4.8-5.9,6.4c6.8,1.6,13.7-9.7,14.1-14.8"/>
	<line class="st32" x1="67.8" y1="100.8" x2="99.3" y2="132.4"/>
	<line class="st32" x1="61.8" y1="113.9" x2="87" y2="138.5"/>
	<line class="st32" x1="56" y1="125.7" x2="74.5" y2="143.8"/>
	<line class="st32" x1="50.3" y1="140" x2="59.9" y2="150.1"/>
	<path class="st32" d="M115.4,111.4c0,0,14.7-10.4,24.8-1.2s-7.5,18.2-9.1,7.2c-1.5-11,10.1-20.2,20.5-15.1s15.3-3.2,14-11.1"/>
	<g>
		<ellipse transform="matrix(0.4897 -0.8719 0.8719 0.4897 -101.4436 118.0461)" cx="50.1" cy="145.7" rx="1.2" ry="1.2"/>
		<ellipse transform="matrix(0.4897 -0.8719 0.8719 0.4897 -108.2505 118.1671)" cx="46.8" cy="151.6" rx="1.2" ry="1.2"/>
		<ellipse transform="matrix(0.4897 -0.8719 0.8719 0.4897 -91.2553 122.4763)" cx="59" cy="139.2" rx="1.2" ry="1.2"/>
		<ellipse transform="matrix(0.4897 -0.8719 0.8719 0.4897 -98.0623 122.5973)" cx="55.7" cy="145.1" rx="1.2" ry="1.2"/>
		<ellipse transform="matrix(0.4897 -0.8719 0.8719 0.4897 -104.8692 122.7184)" cx="52.4" cy="150.9" rx="1.2" ry="1.2"/>
		<ellipse transform="matrix(0.4897 -0.8719 0.8719 0.4897 -87.6675 126.9294)" cx="64.6" cy="138.4" rx="1.2" ry="1.2"/>
		<ellipse transform="matrix(0.4897 -0.8719 0.8719 0.4897 -94.4744 127.0504)" cx="61.3" cy="144.2" rx="1.2" ry="1.2"/>
		<ellipse transform="matrix(0.4897 -0.8719 0.8719 0.4897 -101.2813 127.1714)" cx="58" cy="150.1" rx="1.2" ry="1.2"/>
		<ellipse transform="matrix(0.4897 -0.8719 0.8719 0.4897 -84.2862 131.4807)" cx="70.2" cy="137.7" rx="1.2" ry="1.2"/>
		<ellipse transform="matrix(0.4897 -0.8719 0.8719 0.4897 -91.0931 131.6017)" cx="66.9" cy="143.6" rx="1.2" ry="1.2"/>
		<ellipse transform="matrix(0.4897 -0.8719 0.8719 0.4897 -87.5035 136.1548)" cx="72.6" cy="142.8" rx="1.2" ry="1.2"/>
		<ellipse transform="matrix(0.4897 -0.8719 0.8719 0.4897 -84.1222 140.706)" cx="78.1" cy="142.2" rx="1.2" ry="1.2"/>
		<ellipse transform="matrix(0.4897 -0.8719 0.8719 0.4897 -80.8736 126.8086)" cx="67.9" cy="132.5" rx="1.2" ry="1.2"/>
		<ellipse transform="matrix(0.4897 -0.8719 0.8719 0.4897 -77.4923 131.3599)" cx="73.5" cy="131.9" rx="1.2" ry="1.2"/>
		<ellipse transform="matrix(0.4897 -0.8719 0.8719 0.4897 -73.9027 135.913)" cx="79.2" cy="131.1" rx="1.2" ry="1.2"/>
		<ellipse transform="matrix(0.4897 -0.8719 0.8719 0.4897 -80.7096 136.034)" cx="75.9" cy="137" rx="1.2" ry="1.2"/>
		<ellipse transform="matrix(0.4897 -0.8719 0.8719 0.4897 -70.5214 140.4642)" cx="84.7" cy="130.5" rx="1.2" ry="1.2"/>
		<ellipse transform="matrix(0.4897 -0.8719 0.8719 0.4897 -77.3283 140.5853)" cx="81.4" cy="136.4" rx="1.2" ry="1.2"/>
		<ellipse transform="matrix(0.4897 -0.8719 0.8719 0.4897 -73.7404 145.0383)" cx="87" cy="135.5" rx="1.2" ry="1.2"/>
		<ellipse transform="matrix(0.4897 -0.8719 0.8719 0.4897 -70.3591 149.5896)" cx="92.6" cy="134.9" rx="1.2" ry="1.2"/>
	</g>
	<g>
		<ellipse transform="matrix(0.4897 -0.8719 0.8719 0.4897 -67.1411 135.7928)" cx="82.4" cy="125.3" rx="1.2" ry="1.2"/>
		<ellipse transform="matrix(0.4897 -0.8719 0.8719 0.4897 -56.9528 140.223)" cx="91.3" cy="118.8" rx="1.2" ry="1.2"/>
		<ellipse transform="matrix(0.4897 -0.8719 0.8719 0.4897 -63.7598 140.344)" cx="88" cy="124.6" rx="1.2" ry="1.2"/>
		<ellipse transform="matrix(0.4897 -0.8719 0.8719 0.4897 -53.365 144.6761)" cx="96.9" cy="117.9" rx="1.2" ry="1.2"/>
		<ellipse transform="matrix(0.4897 -0.8719 0.8719 0.4897 -60.1719 144.7971)" cx="93.6" cy="123.8" rx="1.2" ry="1.2"/>
		<ellipse transform="matrix(0.4897 -0.8719 0.8719 0.4897 -66.9788 144.9181)" cx="90.3" cy="129.7" rx="1.2" ry="1.2"/>
		<ellipse transform="matrix(0.4897 -0.8719 0.8719 0.4897 -49.9837 149.2273)" cx="102.5" cy="117.3" rx="1.2" ry="1.2"/>
		<ellipse transform="matrix(0.4897 -0.8719 0.8719 0.4897 -56.7906 149.3484)" cx="99.2" cy="123.2" rx="1.2" ry="1.2"/>
		<ellipse transform="matrix(0.4897 -0.8719 0.8719 0.4897 -63.5975 149.4694)" cx="95.9" cy="129.1" rx="1.2" ry="1.2"/>
		<ellipse transform="matrix(0.4897 -0.8719 0.8719 0.4897 -53.2032 153.7764)" cx="104.8" cy="122.3" rx="1.2" ry="1.2"/>
		<ellipse transform="matrix(0.4897 -0.8719 0.8719 0.4897 -60.0101 153.8974)" cx="101.5" cy="128.2" rx="1.2" ry="1.2"/>
		<ellipse transform="matrix(0.4897 -0.8719 0.8719 0.4897 -66.817 154.0185)" cx="98.2" cy="134.1" rx="1.2" ry="1.2"/>
		<ellipse transform="matrix(0.4897 -0.8719 0.8719 0.4897 -56.6288 158.4487)" cx="107" cy="127.6" rx="1.2" ry="1.2"/>
	</g>
</g>
</svg>
