<svg xmlns="http://www.w3.org/2000/svg" viewBox="0 0 724.63 201.01"><defs><style>.cls-1{fill:none;stroke:#000;stroke-linecap:round;stroke-linejoin:round;stroke-width:4.47px;}</style></defs><title>wholesale-group</title><g id="Layer_2" data-name="Layer 2"><g id="Layer_1-2" data-name="Layer 1"><path d="M22.26,185.92a12.53,12.53,0,0,1-.3,2.78,11.61,11.61,0,0,1-.86,2.49,10.68,10.68,0,0,1-1.37,2.12,10,10,0,0,1-1.85,1.7l5.51,6H20.06a4,4,0,0,1-1.3-.19,2.51,2.51,0,0,1-1.06-.72l-3.18-3.51a11.47,11.47,0,0,1-1.57.31,12.77,12.77,0,0,1-1.67.11,11.62,11.62,0,0,1-4.49-.84,10,10,0,0,1-3.48-2.31,10.38,10.38,0,0,1-2.24-3.52,12.61,12.61,0,0,1,0-8.84A10.34,10.34,0,0,1,3.31,178a10,10,0,0,1,3.48-2.32,11.62,11.62,0,0,1,4.49-.83,11.62,11.62,0,0,1,4.49.84A10.3,10.3,0,0,1,19.23,178a10.49,10.49,0,0,1,2.24,3.51A12.05,12.05,0,0,1,22.26,185.92Zm-4.14,0a10.21,10.21,0,0,0-.47-3.2,6.82,6.82,0,0,0-1.36-2.41,5.86,5.86,0,0,0-2.15-1.51,7.44,7.44,0,0,0-2.86-.53,7.44,7.44,0,0,0-2.86.53,5.86,5.86,0,0,0-2.17,1.51,6.69,6.69,0,0,0-1.37,2.41,10.91,10.91,0,0,0,0,6.4,6.56,6.56,0,0,0,1.37,2.4A5.86,5.86,0,0,0,8.42,193a7.44,7.44,0,0,0,2.86.53,7.44,7.44,0,0,0,2.86-.53,5.86,5.86,0,0,0,2.15-1.51,6.69,6.69,0,0,0,1.36-2.4A10.21,10.21,0,0,0,18.12,185.92Z"/><path d="M37.17,193.51a5.38,5.38,0,0,0,2.1-.39A4.31,4.31,0,0,0,40.82,192a4.79,4.79,0,0,0,1-1.71,7.18,7.18,0,0,0,.34-2.25v-13h4v13a10.16,10.16,0,0,1-.62,3.58,8,8,0,0,1-1.79,2.83,8.2,8.2,0,0,1-2.84,1.86,10.83,10.83,0,0,1-7.5,0,8,8,0,0,1-2.82-1.86,8.13,8.13,0,0,1-1.79-2.83,9.94,9.94,0,0,1-.62-3.58v-13h4v13a6.9,6.9,0,0,0,.34,2.25,4.91,4.91,0,0,0,1,1.72,4.33,4.33,0,0,0,1.55,1.1A5.3,5.3,0,0,0,37.17,193.51Z"/><path d="M71.57,196.77H68.45a1.32,1.32,0,0,1-.86-.27,1.43,1.43,0,0,1-.49-.65l-1.62-4.42h-9l-1.62,4.42a1.38,1.38,0,0,1-.47.63,1.31,1.31,0,0,1-.86.29H50.4l8.52-21.69h4.13Zm-14-8.19h6.91l-2.64-7.22c-.12-.32-.25-.7-.39-1.13s-.29-.91-.43-1.42c-.14.51-.28,1-.41,1.43s-.27.82-.4,1.15Z"/><path d="M80.84,193.44h8.68v3.33H76.8V175.08h4Z"/><path d="M99.86,196.77h-4V175.08h4Z"/><path d="M123,175.08v3.31h-6.53v18.38h-4V178.39H105.9v-3.31Z"/><path d="M138.23,188.34v8.43h-4v-8.43l-7.9-13.26h3.55a1.25,1.25,0,0,1,.83.25,2.1,2.1,0,0,1,.52.65l4,7.24c.23.43.43.84.6,1.22s.32.77.46,1.14c.13-.38.28-.77.44-1.15s.37-.79.6-1.21l3.94-7.24a2,2,0,0,1,.5-.62,1.24,1.24,0,0,1,.84-.28h3.57Z"/><path d="M278.06,179.24a1.13,1.13,0,0,1-.38.46,1,1,0,0,1-.52.14,1.27,1.27,0,0,1-.67-.24l-.89-.51a7,7,0,0,0-1.19-.52,5,5,0,0,0-1.62-.23,4.64,4.64,0,0,0-1.46.2,3.1,3.1,0,0,0-1.05.56,2.31,2.31,0,0,0-.63.86,2.71,2.71,0,0,0-.21,1.11,1.93,1.93,0,0,0,.42,1.27,3.66,3.66,0,0,0,1.14.87,10,10,0,0,0,1.6.65l1.84.6c.62.22,1.23.47,1.84.75a6.82,6.82,0,0,1,1.6,1.08,4.88,4.88,0,0,1,1.13,1.6,5.49,5.49,0,0,1,.43,2.3,7.59,7.59,0,0,1-.5,2.75,6.47,6.47,0,0,1-1.47,2.23,6.81,6.81,0,0,1-2.36,1.5,8.66,8.66,0,0,1-3.2.55,10.69,10.69,0,0,1-2-.2,11.33,11.33,0,0,1-1.93-.58,10,10,0,0,1-1.72-.9,8.28,8.28,0,0,1-1.43-1.17l1.17-1.93a1.67,1.67,0,0,1,.39-.36,1,1,0,0,1,.52-.14,1.4,1.4,0,0,1,.81.31c.29.2.63.43,1,.68a7.5,7.5,0,0,0,1.39.68,5.31,5.31,0,0,0,1.93.31,3.93,3.93,0,0,0,2.67-.82,2.92,2.92,0,0,0,.95-2.34,2.23,2.23,0,0,0-.43-1.4,3.61,3.61,0,0,0-1.14-.91,8.48,8.48,0,0,0-1.6-.62c-.6-.17-1.21-.35-1.83-.55a15.78,15.78,0,0,1-1.83-.72,6,6,0,0,1-1.61-1.1,5.16,5.16,0,0,1-1.13-1.69,6.48,6.48,0,0,1-.42-2.49,6,6,0,0,1,1.85-4.31,6.76,6.76,0,0,1,2.23-1.39,8.08,8.08,0,0,1,3-.53,10.12,10.12,0,0,1,3.54.6,8,8,0,0,1,2.76,1.68Z"/><path d="M299.21,175.29v3.21h-9.62v6h7.58v3.1h-7.58v6.14h9.62V197H285.53V175.29Z"/><path d="M309.87,188.51V197h-4V175.29h6.62a13.68,13.68,0,0,1,3.8.46,7.14,7.14,0,0,1,2.59,1.28,5,5,0,0,1,1.49,2,7,7,0,0,1,.15,4.6,6.23,6.23,0,0,1-.93,1.77,6.48,6.48,0,0,1-1.5,1.4,8,8,0,0,1-2,1,4,4,0,0,1,1.32,1.24l5.43,8h-3.63a1.78,1.78,0,0,1-.89-.21,1.86,1.86,0,0,1-.62-.6l-4.56-6.94a1.66,1.66,0,0,0-.56-.56,2,2,0,0,0-.91-.16Zm0-2.9h2.52a6.25,6.25,0,0,0,2-.28,3.94,3.94,0,0,0,1.4-.79,3.23,3.23,0,0,0,.81-1.19,4.15,4.15,0,0,0,.27-1.52,3.08,3.08,0,0,0-1.08-2.53,5.22,5.22,0,0,0-3.32-.89h-2.59Z"/><path d="M326.22,175.29h3.26a1.33,1.33,0,0,1,.85.26,1.57,1.57,0,0,1,.5.66l5.1,13.23c.17.43.33.9.49,1.41s.3,1.06.44,1.63a18.57,18.57,0,0,1,.85-3l5.09-13.23a1.56,1.56,0,0,1,.48-.63,1.29,1.29,0,0,1,.85-.29h3.26L338.63,197H335Z"/><path d="M357.2,197h-4.05V175.29h4.05Z"/><path d="M380,191.87a.74.74,0,0,1,.57.25l1.59,1.73a8.73,8.73,0,0,1-3.24,2.5,11.22,11.22,0,0,1-4.63.87,10.9,10.9,0,0,1-4.34-.82,9.57,9.57,0,0,1-3.3-2.3,10.12,10.12,0,0,1-2.09-3.51,13.27,13.27,0,0,1-.73-4.45,12,12,0,0,1,.81-4.48,10.2,10.2,0,0,1,2.28-3.5,10.31,10.31,0,0,1,3.52-2.29,12,12,0,0,1,4.52-.82,10.82,10.82,0,0,1,4.23.77,10,10,0,0,1,3.09,2.05l-1.35,1.88a1.26,1.26,0,0,1-.3.31.89.89,0,0,1-.52.14,1.19,1.19,0,0,1-.71-.27,8.55,8.55,0,0,0-.91-.59,7.59,7.59,0,0,0-1.4-.58,8.14,8.14,0,0,0-5,.26,6.16,6.16,0,0,0-2.2,1.52,6.82,6.82,0,0,0-1.44,2.41,9.12,9.12,0,0,0-.52,3.19,9.35,9.35,0,0,0,.52,3.25,7.07,7.07,0,0,0,1.4,2.4,5.9,5.9,0,0,0,2.08,1.49,6.4,6.4,0,0,0,2.58.52,11.41,11.41,0,0,0,1.5-.09,6.51,6.51,0,0,0,1.23-.28,5.17,5.17,0,0,0,1.06-.51,6.07,6.07,0,0,0,1-.75,1.26,1.26,0,0,1,.31-.22A.73.73,0,0,1,380,191.87Z"/><path d="M401.87,175.29v3.21h-9.62v6h7.58v3.1h-7.58v6.14h9.62V197H388.19V175.29Z"/><path d="M539.71,175.26v3.21h-9.62v6.42h8.12v3.22h-8.12V197H526V175.26Z"/><path d="M549.91,193.62h8.68V197H545.87V175.26h4Z"/><path d="M578.06,175.26v3.21h-9.61v6H576v3.11h-7.57v6.13h9.61V197H564.38V175.26Z"/><path d="M589.76,185.79l-6.91-10.53h4a1.32,1.32,0,0,1,.61.11,1.1,1.1,0,0,1,.33.37l4.94,8c0-.13.1-.25.16-.38s.13-.25.21-.38l4.52-7.13a1,1,0,0,1,.85-.55h3.87l-7,10.36L602.56,197h-4a1,1,0,0,1-.65-.21,2.09,2.09,0,0,1-.41-.48l-5-8.31a3.42,3.42,0,0,1-.13.34l-.15.29-4.82,7.68a2.22,2.22,0,0,1-.4.47.84.84,0,0,1-.6.22h-3.78Z"/><path d="M612.47,197h-4.05V175.26h4.05Z"/><path d="M620.35,197V175.26h7.48a14.25,14.25,0,0,1,3.64.4,6.91,6.91,0,0,1,2.47,1.16,4.43,4.43,0,0,1,1.42,1.81,6.11,6.11,0,0,1,.45,2.4,4.8,4.8,0,0,1-.22,1.47,4.11,4.11,0,0,1-.7,1.3,5.11,5.11,0,0,1-1.2,1.1,7.33,7.33,0,0,1-1.73.84q4.47,1,4.47,4.83a6.16,6.16,0,0,1-.53,2.55,5.59,5.59,0,0,1-1.53,2,7.2,7.2,0,0,1-2.47,1.33,10.81,10.81,0,0,1-3.36.48Zm4-12.3h3.23a5.4,5.4,0,0,0,3.12-.75,2.72,2.72,0,0,0,1.06-2.39,2.82,2.82,0,0,0-1-2.41,5,5,0,0,0-3-.72h-3.45Zm0,2.79v6.36h4.1a5.66,5.66,0,0,0,1.88-.27,3.37,3.37,0,0,0,1.22-.72,2.61,2.61,0,0,0,.65-1.05,3.86,3.86,0,0,0,.21-1.28,3.33,3.33,0,0,0-.23-1.26,2.3,2.3,0,0,0-.7-1,3.23,3.23,0,0,0-1.23-.61,6.85,6.85,0,0,0-1.82-.21Z"/><path d="M647.44,197h-4.05V175.26h4.05Z"/><path d="M659.35,193.62H668V197H655.31V175.26h4Z"/><path d="M678.37,197h-4V175.26h4Z"/><path d="M701.53,175.26v3.31H695V197h-4V178.57h-6.56v-3.31Z"/><path d="M716.74,188.52V197h-4v-8.43l-7.9-13.26h3.55a1.25,1.25,0,0,1,.83.25,2.1,2.1,0,0,1,.52.65l4,7.24q.35.65.6,1.23c.17.38.32.76.46,1.13.13-.38.28-.76.44-1.15s.37-.79.6-1.21l3.94-7.24a2,2,0,0,1,.5-.62,1.24,1.24,0,0,1,.84-.28h3.57Z"/><polygon class="cls-1" points="73.8 139.33 2.24 54.76 34.09 19.54 109.91 19.54 142.21 54.76 73.8 139.33"/><line class="cls-1" x1="2.24" y1="54.76" x2="142.21" y2="54.76"/><polygon class="cls-1" points="73.8 139.33 101.61 54.76 109.91 19.54 73.34 19.54 101.61 54.76 46.43 54.76 73.8 139.33"/><polygon class="cls-1" points="73.34 19.54 46.43 54.76 34.09 19.54 73.34 19.54"/><circle cx="83.75" cy="111.54" r="1.4"/><circle cx="83.75" cy="119.58" r="1.4"/><circle cx="83.75" cy="127.62" r="1.4"/><circle cx="89.19" cy="99.61" r="1.4"/><circle cx="89.19" cy="107.65" r="1.4"/><circle cx="89.19" cy="115.69" r="1.4"/><circle cx="94.52" cy="95.47" r="1.4"/><circle cx="94.52" cy="103.51" r="1.4"/><circle cx="94.52" cy="111.54" r="1.4"/><circle cx="99.97" cy="91.57" r="1.4"/><circle cx="99.97" cy="99.61" r="1.4"/><circle cx="99.97" cy="107.65" r="1.4"/><circle cx="105.42" cy="95.47" r="1.4"/><circle cx="110.86" cy="91.57" r="1.4"/><circle cx="94.52" cy="87.44" r="1.4"/><circle cx="99.97" cy="83.55" r="1.4"/><circle cx="105.42" cy="79.4" r="1.4"/><circle cx="105.42" cy="87.44" r="1.4"/><circle cx="110.86" cy="75.51" r="1.4"/><circle cx="110.86" cy="83.55" r="1.4"/><circle cx="116.2" cy="79.4" r="1.4"/><circle cx="116.2" cy="87.44" r="1.4"/><circle cx="121.64" cy="75.51" r="1.4"/><circle cx="105.42" cy="71.42" r="1.4"/><circle cx="110.86" cy="35.36" r="1.4"/><circle cx="110.86" cy="43.4" r="1.4"/><circle cx="110.86" cy="59.48" r="1.4"/><circle cx="110.86" cy="67.52" r="1.4"/><circle cx="116.2" cy="39.26" r="1.4"/><circle cx="116.2" cy="47.3" r="1.4"/><circle cx="116.2" cy="55.34" r="1.4"/><circle cx="116.2" cy="63.38" r="1.4"/><circle cx="116.2" cy="71.42" r="1.4"/><circle cx="121.64" cy="35.36" r="1.4"/><circle cx="121.64" cy="43.4" r="1.4"/><circle cx="121.64" cy="51.44" r="1.4"/><circle cx="121.64" cy="59.48" r="1.4"/><circle cx="121.64" cy="67.52" r="1.4"/><circle cx="126.95" cy="39.26" r="1.4"/><circle cx="126.95" cy="47.3" r="1.4"/><circle cx="126.95" cy="55.34" r="1.4"/><circle cx="126.95" cy="63.38" r="1.4"/><circle cx="126.95" cy="71.42" r="1.4"/><circle cx="132.39" cy="43.4" r="1.4"/><circle cx="132.39" cy="51.44" r="1.4"/><circle cx="132.39" cy="59.48" r="1.4"/><circle cx="132.39" cy="67.52" r="1.4"/><circle cx="137.72" cy="55.34" r="1.4"/><circle cx="110.86" cy="27.34" r="1.4"/><circle cx="116.2" cy="31.24" r="1.4"/><line class="cls-1" x1="286.52" y1="128.08" x2="264.88" y2="128.08"/><polygon class="cls-1" points="356.71 145.81 286.52 127.9 286.52 15.81 356.71 2.24 356.71 145.81"/><polyline class="cls-1" points="357.54 17.77 380.5 17.77 380.5 128.08 403.19 128.08"/><circle cx="340.56" cy="77.05" r="3.28"/><circle cx="342.45" cy="100.88" r="1.39"/><circle cx="342.45" cy="108.84" r="1.39"/><circle cx="342.45" cy="116.8" r="1.39"/><circle cx="347.85" cy="104.74" r="1.39"/><circle cx="347.85" cy="112.7" r="1.39"/><circle cx="347.85" cy="120.66" r="1.39"/><circle cx="353.24" cy="100.88" r="1.39"/><circle cx="353.24" cy="108.84" r="1.39"/><circle cx="353.24" cy="116.8" r="1.39"/><circle cx="342.45" cy="124.76" r="1.39"/><circle cx="342.45" cy="132.73" r="1.39"/><circle cx="347.85" cy="128.62" r="1.39"/><circle cx="347.85" cy="136.59" r="1.39"/><circle cx="353.24" cy="124.76" r="1.39"/><circle cx="353.24" cy="132.73" r="1.39"/><circle cx="342.45" cy="140.26" r="1.39"/><circle cx="353.24" cy="140.26" r="1.39"/><circle cx="342.45" cy="29.27" r="1.39"/><circle cx="342.45" cy="37.23" r="1.39"/><circle cx="342.45" cy="45.2" r="1.39"/><circle cx="342.45" cy="53.16" r="1.39"/><circle cx="342.45" cy="61.12" r="1.39"/><circle cx="342.45" cy="69.08" r="1.39"/><circle cx="342.45" cy="85.01" r="1.39"/><circle cx="342.45" cy="92.97" r="1.39"/><circle cx="347.85" cy="33.13" r="1.39"/><circle cx="347.85" cy="41.09" r="1.39"/><circle cx="347.85" cy="49.06" r="1.39"/><circle cx="347.85" cy="57.02" r="1.39"/><circle cx="347.85" cy="64.98" r="1.39"/><circle cx="347.85" cy="72.94" r="1.39"/><circle cx="347.85" cy="80.91" r="1.39"/><circle cx="347.85" cy="88.87" r="1.39"/><circle cx="347.85" cy="96.83" r="1.39"/><circle cx="353.24" cy="29.27" r="1.39"/><circle cx="353.24" cy="37.23" r="1.39"/><circle cx="342.45" cy="13.32" r="1.39"/><circle cx="342.45" cy="21.28" r="1.39"/><circle cx="347.85" cy="17.18" r="1.39"/><circle cx="347.85" cy="25.14" r="1.39"/><circle cx="353.24" cy="13.32" r="1.39"/><circle cx="347.85" cy="9.44" r="1.39"/><circle cx="353.24" cy="5.58" r="1.39"/><circle cx="353.24" cy="21.28" r="1.39"/><circle cx="353.24" cy="45.2" r="1.39"/><circle cx="353.24" cy="53.16" r="1.39"/><circle cx="353.24" cy="61.12" r="1.39"/><circle cx="353.24" cy="69.08" r="1.39"/><circle cx="353.24" cy="77.05" r="1.39"/><circle cx="353.24" cy="85.01" r="1.39"/><circle cx="353.24" cy="92.97" r="1.39"/><ellipse class="cls-1" cx="574.93" cy="129.47" rx="42.77" ry="10.59"/><ellipse class="cls-1" cx="574.93" cy="112.54" rx="10.59" ry="42.77" transform="translate(356.84 656.27) rotate(-79.22)"/><ellipse class="cls-1" cx="578.91" cy="98.17" rx="10.59" ry="42.77" transform="translate(204.44 550.44) rotate(-60)"/><ellipse class="cls-1" cx="587.68" cy="81.38" rx="10.59" ry="42.77" transform="translate(114.59 439.39) rotate(-45)"/><ellipse class="cls-1" cx="598.84" cy="68.53" rx="10.59" ry="42.77" transform="translate(45.96 308.6) rotate(-30)"/><ellipse class="cls-1" cx="610.37" cy="61.39" rx="10.59" ry="42.77" transform="translate(0.24 125.11) rotate(-11.71)"/><ellipse class="cls-1" cx="676.86" cy="129.47" rx="42.77" ry="10.59"/><ellipse class="cls-1" cx="676.86" cy="112.54" rx="42.77" ry="10.59" transform="translate(-9.1 128.58) rotate(-10.78)"/><ellipse class="cls-1" cx="672.88" cy="98.17" rx="42.77" ry="10.59" transform="translate(41.06 349.59) rotate(-30)"/><ellipse class="cls-1" cx="664.11" cy="81.38" rx="42.77" ry="10.59" transform="translate(136.97 493.43) rotate(-45)"/><ellipse class="cls-1" cx="652.95" cy="68.53" rx="42.77" ry="10.59" transform="translate(267.12 599.73) rotate(-60)"/><ellipse class="cls-1" cx="641.41" cy="61.39" rx="42.77" ry="10.59" transform="translate(451.17 677.01) rotate(-78.29)"/><ellipse class="cls-1" cx="625.77" cy="60.17" rx="10.59" ry="42.77"/><circle cx="671.63" cy="66.02" r="1.4"/><circle cx="676.97" cy="61.87" r="1.4"/><circle cx="676.97" cy="69.91" r="1.4"/><circle cx="676.97" cy="77.95" r="1.4"/><circle cx="682.41" cy="57.98" r="1.4"/><circle cx="682.41" cy="66.02" r="1.4"/><circle cx="682.41" cy="74.06" r="1.4"/><circle cx="687.72" cy="53.84" r="1.4"/><circle cx="687.72" cy="61.87" r="1.4"/><circle cx="687.72" cy="69.91" r="1.4"/><circle cx="693.16" cy="49.94" r="1.4"/><circle cx="693.16" cy="57.98" r="1.4"/><circle cx="663.39" cy="40.5" r="1.4"/><circle cx="668.72" cy="36.36" r="1.4"/><circle cx="668.72" cy="44.4" r="1.4"/><circle cx="668.72" cy="52.44" r="1.4"/><circle cx="674.17" cy="32.46" r="1.4"/><circle cx="674.17" cy="40.5" r="1.4"/><circle cx="674.17" cy="48.54" r="1.4"/><circle cx="663.39" cy="48.54" r="1.4"/><circle cx="688.47" cy="85.99" r="1.4"/><circle cx="683.16" cy="90.13" r="1.4"/><circle cx="683.16" cy="98.17" r="1.4"/><circle cx="688.47" cy="94.03" r="1.4"/><circle cx="683.16" cy="82.9" r="1.4"/><circle cx="693.91" cy="82.1" r="1.4"/><circle cx="693.91" cy="90.13" r="1.4"/><circle cx="688.61" cy="79" r="1.4"/><circle cx="699.22" cy="77.95" r="1.4"/><circle cx="699.22" cy="85.99" r="1.4"/><circle cx="704.66" cy="74.06" r="1.4"/><circle cx="704.66" cy="82.1" r="1.4"/><circle cx="693.91" cy="105.41" r="1.4"/><circle cx="699.22" cy="109.01" r="1.4"/><circle cx="693.91" cy="112.91" r="1.4"/><circle cx="688.14" cy="101.66" r="1.4"/><circle cx="688.61" cy="117.48" r="1.4"/><circle cx="688.14" cy="109.16" r="1.4"/><circle cx="699.22" cy="117.05" r="1.4"/><circle cx="704.55" cy="104.87" r="1.4"/><circle cx="704.55" cy="112.91" r="1.4"/><circle cx="699.24" cy="101.78" r="1.4"/><circle cx="709.99" cy="100.97" r="1.4"/><circle cx="709.99" cy="109.01" r="1.4"/><circle cx="715.3" cy="104.87" r="1.4"/><circle cx="697.9" cy="124.71" r="1.4"/><circle cx="703.2" cy="128.32" r="1.4"/><circle cx="691.76" cy="128.32" r="1.4"/><circle cx="697.82" cy="132.21" r="1.4"/><circle cx="703.2" cy="136.36" r="1.4"/><circle cx="691.76" cy="136.36" r="1.4"/><circle cx="708.54" cy="124.18" r="1.4"/><circle cx="708.54" cy="132.21" r="1.4"/><circle cx="703.23" cy="121.08" r="1.4"/><circle cx="713.98" cy="128.32" r="1.4"/></g></g></svg>