<?xml version="1.0" encoding="utf-8"?>
<!-- Generator: Adobe Illustrator 21.1.0, SVG Export Plug-In . SVG Version: 6.00 Build 0)  -->
<svg version="1.1" id="Layer_1" xmlns="http://www.w3.org/2000/svg" xmlns:xlink="http://www.w3.org/1999/xlink" x="0px" y="0px"
	 viewBox="0 0 380 222.7" style="enable-background:new 0 0 380 222.7;" xml:space="preserve">
<style type="text/css">
	.st0{fill:#FFFFFF;}
	.st1{fill:#9CC184;}
	.st2{fill:none;stroke:#9CC184;stroke-width:1.0933;stroke-miterlimit:10;}
	.st3{opacity:0.7;}
	.st4{opacity:0.65;}
	.st5{opacity:0.25;}
	.st6{fill:#CFD1D3;}
	.st7{fill:none;stroke:#9CC184;stroke-width:1.8258;stroke-miterlimit:10;}
	.st8{fill:none;stroke:#9CC184;stroke-width:1.8258;stroke-linecap:round;stroke-linejoin:round;stroke-miterlimit:10;}
	.st9{fill:none;stroke:#000000;stroke-width:4.4737;stroke-linecap:round;stroke-linejoin:round;stroke-miterlimit:10;}
	.st10{fill:none;stroke:#9CC184;stroke-width:1.0434;stroke-miterlimit:10;}
	.st11{fill:none;stroke:#9CC184;stroke-width:1.0434;stroke-linecap:round;stroke-linejoin:round;stroke-miterlimit:10;}
	.st12{fill:none;stroke:#000000;stroke-width:2.5567;stroke-linecap:round;stroke-linejoin:round;stroke-miterlimit:10;}
	.st13{fill:none;stroke:#000000;stroke-width:3.7281;stroke-linecap:round;stroke-linejoin:round;stroke-miterlimit:10;}
	.st14{fill:none;stroke:#000000;stroke-width:4.4743;stroke-linecap:round;stroke-linejoin:round;stroke-miterlimit:10;}
	.st15{fill:none;stroke:#3A3537;stroke-width:3.047;stroke-linecap:round;stroke-linejoin:round;stroke-miterlimit:10;}
	.st16{fill:none;stroke:#3A3537;stroke-width:3.4863;stroke-linecap:round;stroke-linejoin:round;stroke-miterlimit:10;}
	.st17{fill:none;stroke:#000000;stroke-width:2.363;stroke-linecap:round;stroke-linejoin:round;stroke-miterlimit:10;}
	.st18{fill:none;stroke:#000000;stroke-width:1.9692;stroke-linecap:round;stroke-linejoin:round;stroke-miterlimit:10;}
	.st19{fill:none;stroke:#000000;stroke-width:2.3633;stroke-linecap:round;stroke-linejoin:round;stroke-miterlimit:10;}
	.st20{fill:none;stroke:#3A3537;stroke-width:1.6094;stroke-linecap:round;stroke-linejoin:round;stroke-miterlimit:10;}
	.st21{fill:none;stroke:#3A3537;stroke-width:1.8414;stroke-linecap:round;stroke-linejoin:round;stroke-miterlimit:10;}
	.st22{fill:none;stroke:#FFFFFF;stroke-width:1.8258;stroke-linecap:round;stroke-linejoin:round;stroke-miterlimit:10;}
	.st23{fill:none;stroke:#FFFFFF;stroke-width:1.3527;stroke-linecap:round;stroke-linejoin:round;stroke-miterlimit:10;}
	.st24{opacity:0.5;}
	.st25{fill:none;stroke:#000000;stroke-width:2.5563;stroke-linecap:round;stroke-linejoin:round;stroke-miterlimit:10;}
	.st26{opacity:0.5;fill:#CFD1D3;}
	.st27{opacity:0.35;}
	.st28{opacity:0.25;fill:#CFD1D3;}
	.st29{opacity:0.85;fill:#9CC184;}
	.st30{fill:#55705A;}
	.st31{fill:none;stroke:#9CC184;stroke-width:1.1751;stroke-miterlimit:10;}
	.st32{fill:none;stroke:#000000;stroke-width:2;stroke-linecap:round;stroke-linejoin:round;stroke-miterlimit:10;}
	.st33{fill:none;stroke:#000000;stroke-width:1.434;stroke-linecap:round;stroke-linejoin:round;stroke-miterlimit:10;}
	.st34{fill:none;stroke:#9CC184;stroke-width:1.101;stroke-miterlimit:10;}
	.st35{fill:none;stroke:#000000;stroke-width:4.437;stroke-linecap:round;stroke-linejoin:round;stroke-miterlimit:10;}
	.st36{clip-path:url(#SVGID_88_);}
	.st37{clip-path:url(#SVGID_90_);}
	.st38{clip-path:url(#SVGID_92_);}
	.st39{clip-path:url(#SVGID_100_);}
	.st40{clip-path:url(#SVGID_102_);}
	.st41{fill:none;stroke:#9CC184;stroke-width:0.3035;stroke-miterlimit:10;}
	.st42{fill:none;stroke:#9CC184;stroke-width:0.3035;stroke-linecap:round;stroke-linejoin:round;stroke-miterlimit:10;}
	.st43{fill:none;stroke:#000000;stroke-width:0.7437;stroke-linecap:round;stroke-linejoin:round;stroke-miterlimit:10;}
	.st44{fill:none;stroke:#000000;stroke-width:0.6198;stroke-linecap:round;stroke-linejoin:round;stroke-miterlimit:10;}
	.st45{fill:none;stroke:#000000;stroke-width:0.7438;stroke-linecap:round;stroke-linejoin:round;stroke-miterlimit:10;}
	.st46{fill:none;stroke:#3A3537;stroke-width:0.5065;stroke-linecap:round;stroke-linejoin:round;stroke-miterlimit:10;}
	.st47{fill:none;stroke:#3A3537;stroke-width:0.5796;stroke-linecap:round;stroke-linejoin:round;stroke-miterlimit:10;}
	.st48{fill:none;stroke:#FFFFFF;stroke-width:0.3035;stroke-linecap:round;stroke-linejoin:round;stroke-miterlimit:10;}
	.st49{fill:none;stroke:#9CC184;stroke-width:0.304;stroke-miterlimit:10;}
	.st50{fill:none;stroke:#9CC184;stroke-width:0.304;stroke-linecap:round;stroke-linejoin:round;stroke-miterlimit:10;}
	.st51{fill:none;stroke:#FFFFFF;stroke-width:0.304;stroke-linecap:round;stroke-linejoin:round;stroke-miterlimit:10;}
</style>
<g>
	<g>
		<path class="st9" d="M144.7,120.6c10.9,1.4,19.8,14.3,20.5,30.4c0.7,17.4-8.4,31.9-20.5,32.4c-12,0.5-22.4-13.2-23.1-30.6
			c-0.6-15.1,6.2-27.9,15.8-31.4c0.5-0.2,1-0.3,1.4-0.4c-0.4,7.5,0.2,23.2,2.3,44.5l6.7,0.4L144.7,120.6z"/>
	</g>
	<g>
		<ellipse transform="matrix(0.9981 -6.179253e-02 6.179253e-02 0.9981 -8.2732 9.8862)" cx="155.7" cy="138.7" rx="1.4" ry="1.4"/>
		<ellipse transform="matrix(0.9981 -6.179253e-02 6.179253e-02 0.9981 -8.7634 9.9318)" cx="156.2" cy="146.6" rx="1.4" ry="1.4"/>
		<ellipse transform="matrix(0.9981 -6.179253e-02 6.179253e-02 0.9981 -9.2536 9.9774)" cx="156.7" cy="154.6" rx="1.4" ry="1.4"/>
		<ellipse transform="matrix(0.9981 -6.179253e-02 6.179253e-02 0.9981 -9.7437 10.023)" cx="157.2" cy="162.5" rx="1.4" ry="1.4"/>
		
			<ellipse transform="matrix(0.9981 -6.179253e-02 6.179253e-02 0.9981 -10.2339 10.0686)" cx="157.7" cy="170.5" rx="1.4" ry="1.4"/>
		
			<ellipse transform="matrix(0.9981 -6.179253e-02 6.179253e-02 0.9981 -8.4949 10.2417)" cx="161.3" cy="142.5" rx="1.4" ry="1.4"/>
		
			<ellipse transform="matrix(0.9981 -6.179253e-02 6.179253e-02 0.9981 -8.9851 10.2873)" cx="161.8" cy="150.4" rx="1.4" ry="1.4"/>
		
			<ellipse transform="matrix(0.9981 -6.179253e-02 6.179253e-02 0.9981 -9.4753 10.3329)" cx="162.3" cy="158.4" rx="1.4" ry="1.4"/>
		
			<ellipse transform="matrix(0.9981 -6.179253e-02 6.179253e-02 0.9981 -9.9655 10.3785)" cx="162.8" cy="166.3" rx="1.4" ry="1.4"/>
		<ellipse transform="matrix(0.9981 -6.179253e-02 6.179253e-02 0.9981 -7.7839 9.8407)" cx="155.2" cy="130.8" rx="1.4" ry="1.4"/>
	</g>
</g>
<g>
	<g>
		<path class="st9" d="M77.5,103.5c-2.5,10.7-16.2,18.3-32.3,17.4c-17.4-1-30.9-11.5-30.2-23.6c0.7-12,15.3-20.9,32.7-19.9
			c15,0.9,27.2,8.9,29.7,18.8c0.1,0.5,0.2,1,0.3,1.5c-7.4-1.1-23.1-2.1-44.5-2.1l-1.1,6.6L77.5,103.5z"/>
	</g>
	<g>
		
			<ellipse transform="matrix(3.705527e-02 -0.9993 0.9993 3.705527e-02 -56.2687 166.7643)" cx="58.4" cy="112.6" rx="1.4" ry="1.4"/>
		
			<ellipse transform="matrix(3.705527e-02 -0.9993 0.9993 3.705527e-02 -63.6366 158.5279)" cx="50.4" cy="112.3" rx="1.4" ry="1.4"/>
		<ellipse transform="matrix(3.705527e-02 -0.9993 0.9993 3.705527e-02 -71.0046 150.2915)" cx="42.5" cy="112" rx="1.4" ry="1.4"/>
		
			<ellipse transform="matrix(3.705527e-02 -0.9993 0.9993 3.705527e-02 -78.3726 142.055)" cx="34.5" cy="111.7" rx="1.4" ry="1.4"/>
		
			<ellipse transform="matrix(3.705527e-02 -0.9993 0.9993 3.705527e-02 -85.7406 133.8186)" cx="26.6" cy="111.4" rx="1.4" ry="1.4"/>
		<ellipse transform="matrix(3.705527e-02 -0.9993 0.9993 3.705527e-02 -65.6434 167.51)" cx="54.1" cy="117.8" rx="1.4" ry="1.4"/>
		
			<ellipse transform="matrix(3.705527e-02 -0.9993 0.9993 3.705527e-02 -73.0114 159.2736)" cx="46.1" cy="117.5" rx="1.4" ry="1.4"/>
		
			<ellipse transform="matrix(3.705527e-02 -0.9993 0.9993 3.705527e-02 -80.3794 151.0371)" cx="38.2" cy="117.2" rx="1.4" ry="1.4"/>
		
			<ellipse transform="matrix(3.705527e-02 -0.9993 0.9993 3.705527e-02 -87.7474 142.8007)" cx="30.2" cy="116.9" rx="1.4" ry="1.4"/>
		
			<ellipse transform="matrix(3.705527e-02 -0.9993 0.9993 3.705527e-02 -48.9148 174.9849)" cx="66.3" cy="112.9" rx="1.4" ry="1.4"/>
	</g>
</g>
<g>
	<g>
		<path class="st9" d="M366.2,160.1c5.7,9.4,1.3,24.4-10.9,35c-13.1,11.5-30.1,13.4-38.1,4.3c-7.9-9.1-3.7-25.7,9.4-37.1
			c11.3-9.9,25.6-12.7,34.4-7.4c0.4,0.3,0.9,0.5,1.3,0.8c-6.1,4.4-17.9,14.7-33.3,29.7l3.9,5.5L366.2,160.1z"/>
	</g>
	<g>
		<ellipse transform="matrix(0.7391 -0.6736 0.6736 0.7391 -27.6077 288.7193)" cx="358.9" cy="180" rx="1.4" ry="1.4"/>
		<ellipse transform="matrix(0.7391 -0.6736 0.6736 0.7391 -32.7559 286.1541)" cx="353" cy="185.4" rx="1.4" ry="1.4"/>
		<ellipse transform="matrix(0.7391 -0.6736 0.6736 0.7391 -37.9041 283.5888)" cx="347.2" cy="190.7" rx="1.4" ry="1.4"/>
		<ellipse transform="matrix(0.7391 -0.6736 0.6736 0.7391 -43.0523 281.0235)" cx="341.3" cy="196.1" rx="1.4" ry="1.4"/>
		<ellipse transform="matrix(0.7391 -0.6736 0.6736 0.7391 -48.2005 278.4582)" cx="335.4" cy="201.5" rx="1.4" ry="1.4"/>
		<ellipse transform="matrix(0.7391 -0.6736 0.6736 0.7391 -31.9979 290.884)" cx="359.5" cy="186.8" rx="1.4" ry="1.4"/>
		<ellipse transform="matrix(0.7391 -0.6736 0.6736 0.7391 -37.1461 288.3187)" cx="353.6" cy="192.1" rx="1.4" ry="1.4"/>
		<ellipse transform="matrix(0.7391 -0.6736 0.6736 0.7391 -42.2943 285.7534)" cx="347.8" cy="197.5" rx="1.4" ry="1.4"/>
		<ellipse transform="matrix(0.7391 -0.6736 0.6736 0.7391 -47.4424 283.1882)" cx="341.9" cy="202.8" rx="1.4" ry="1.4"/>
		<ellipse transform="matrix(0.7391 -0.6736 0.6736 0.7391 -22.4695 291.2797)" cx="364.8" cy="174.6" rx="1.4" ry="1.4"/>
	</g>
</g>
<g>
	<g>
		<path class="st9" d="M189.7,49.4c-5.7-9.4-1.3-24.4,10.9-35C213.7,2.9,230.7,1,238.6,10c7.9,9.1,3.7,25.7-9.4,37.1
			c-11.3,9.9-25.6,12.7-34.4,7.4c-0.4-0.3-0.9-0.5-1.3-0.8c6.1-4.4,17.9-14.7,33.3-29.7l-3.9-5.5L189.7,49.4z"/>
	</g>
	<g>
		<ellipse transform="matrix(0.7391 -0.6736 0.6736 0.7391 31.4811 140.3288)" cx="196.9" cy="29.5" rx="1.4" ry="1.4"/>
		<ellipse transform="matrix(0.7391 -0.6736 0.6736 0.7391 36.6293 142.894)" cx="202.8" cy="24.2" rx="1.4" ry="1.4"/>
		<ellipse transform="matrix(0.7391 -0.6736 0.6736 0.7391 41.7774 145.4593)" cx="208.7" cy="18.8" rx="1.4" ry="1.4"/>
		<ellipse transform="matrix(0.7391 -0.6736 0.6736 0.7391 46.9256 148.0246)" cx="214.6" cy="13.4" rx="1.4" ry="1.4"/>
		<ellipse transform="matrix(0.7391 -0.6736 0.6736 0.7391 52.0738 150.5899)" cx="220.4" cy="8.1" rx="1.4" ry="1.4"/>
		<ellipse transform="matrix(0.7391 -0.6736 0.6736 0.7391 35.8712 138.1641)" cx="196.3" cy="22.8" rx="1.4" ry="1.4"/>
		<ellipse transform="matrix(0.7391 -0.6736 0.6736 0.7391 41.0194 140.7294)" cx="202.2" cy="17.4" rx="1.4" ry="1.4"/>
		<ellipse transform="matrix(0.7391 -0.6736 0.6736 0.7391 46.1676 143.2946)" cx="208.1" cy="12" rx="1.4" ry="1.4"/>
		<ellipse transform="matrix(0.7391 -0.6736 0.6736 0.7391 51.3158 145.8599)" cx="214" cy="6.7" rx="1.4" ry="1.4"/>
		<ellipse transform="matrix(0.7391 -0.6736 0.6736 0.7391 26.3428 137.7684)" cx="191" cy="34.9" rx="1.4" ry="1.4"/>
	</g>
</g>
</svg>
