<?xml version="1.0" encoding="utf-8"?>
<!-- Generator: Adobe Illustrator 21.1.0, SVG Export Plug-In . SVG Version: 6.00 Build 0)  -->
<svg version="1.1" id="Layer_1" xmlns="http://www.w3.org/2000/svg" xmlns:xlink="http://www.w3.org/1999/xlink" x="0px" y="0px"
	 viewBox="0 0 1061.9 263.4" style="enable-background:new 0 0 1061.9 263.4;" xml:space="preserve">
<style type="text/css">
	.st0{opacity:0.7;}
	.st1{opacity:0.25;}
	.st2{fill:#CFD1D3;}
	.st3{fill:#9CC184;}
	.st4{opacity:0.65;}
	.st5{fill:#FFFFFF;}
	.st6{fill:none;stroke:#9CC184;stroke-width:1.8258;stroke-miterlimit:10;}
	.st7{fill:none;stroke:#9CC184;stroke-width:1.8258;stroke-linecap:round;stroke-linejoin:round;stroke-miterlimit:10;}
	.st8{fill:none;stroke:#000000;stroke-width:4.4737;stroke-linecap:round;stroke-linejoin:round;stroke-miterlimit:10;}
	.st9{fill:none;stroke:#9CC184;stroke-width:1.0434;stroke-miterlimit:10;}
	.st10{fill:none;stroke:#9CC184;stroke-width:1.0434;stroke-linecap:round;stroke-linejoin:round;stroke-miterlimit:10;}
	.st11{fill:none;stroke:#000000;stroke-width:2.5567;stroke-linecap:round;stroke-linejoin:round;stroke-miterlimit:10;}
	.st12{fill:none;stroke:#000000;stroke-width:3.7281;stroke-linecap:round;stroke-linejoin:round;stroke-miterlimit:10;}
	.st13{fill:none;stroke:#000000;stroke-width:4.4743;stroke-linecap:round;stroke-linejoin:round;stroke-miterlimit:10;}
	.st14{fill:none;stroke:#3A3537;stroke-width:3.047;stroke-linecap:round;stroke-linejoin:round;stroke-miterlimit:10;}
	.st15{fill:none;stroke:#3A3537;stroke-width:3.4863;stroke-linecap:round;stroke-linejoin:round;stroke-miterlimit:10;}
	.st16{fill:none;stroke:#000000;stroke-width:2.363;stroke-linecap:round;stroke-linejoin:round;stroke-miterlimit:10;}
	.st17{fill:none;stroke:#000000;stroke-width:1.9692;stroke-linecap:round;stroke-linejoin:round;stroke-miterlimit:10;}
	.st18{fill:none;stroke:#000000;stroke-width:2.3633;stroke-linecap:round;stroke-linejoin:round;stroke-miterlimit:10;}
	.st19{fill:none;stroke:#3A3537;stroke-width:1.6094;stroke-linecap:round;stroke-linejoin:round;stroke-miterlimit:10;}
	.st20{fill:none;stroke:#3A3537;stroke-width:1.8414;stroke-linecap:round;stroke-linejoin:round;stroke-miterlimit:10;}
	.st21{fill:none;stroke:#FFFFFF;stroke-width:1.8258;stroke-linecap:round;stroke-linejoin:round;stroke-miterlimit:10;}
	.st22{fill:none;stroke:#FFFFFF;stroke-width:1.3527;stroke-linecap:round;stroke-linejoin:round;stroke-miterlimit:10;}
	.st23{opacity:0.5;}
	.st24{fill:none;stroke:#000000;stroke-width:2.5563;stroke-linecap:round;stroke-linejoin:round;stroke-miterlimit:10;}
	.st25{opacity:0.5;fill:#CFD1D3;}
	.st26{opacity:0.35;}
	.st27{opacity:0.25;fill:#CFD1D3;}
	.st28{opacity:0.85;fill:#9CC184;}
	.st29{fill:#55705A;}
	.st30{fill:none;stroke:#000000;stroke-width:2;stroke-linecap:round;stroke-linejoin:round;stroke-miterlimit:10;}
	.st31{clip-path:url(#SVGID_56_);}
	.st32{fill:none;stroke:#000000;stroke-width:4.437;stroke-linecap:round;stroke-linejoin:round;stroke-miterlimit:10;}
	.st33{clip-path:url(#SVGID_58_);}
	.st34{clip-path:url(#SVGID_60_);}
</style>
<g>
	<g>
		<path class="st8" d="M812.8,175.3h133.9c0,0-4.5,49.9-37.5,74.3h-60C849.2,249.5,816.5,228,812.8,175.3z"/>
		<path class="st8" d="M950.5,190.3c0,0,16.2-7.5,20.7,5.1c3.2,9.2-4.2,17.7-11.6,21.9c-6.5,3.7-13.9,6.9-21.5,7.3"/>
		<g>
			<circle cx="896.9" cy="246.1" r="1.4"/>
			<circle cx="902.3" cy="242.2" r="1.4"/>
			<circle cx="902.3" cy="249" r="1.4"/>
			<circle cx="907.6" cy="230.1" r="1.4"/>
			<circle cx="907.6" cy="238.1" r="1.4"/>
			<circle cx="907.6" cy="246.1" r="1.4"/>
			<circle cx="913" cy="226.3" r="1.4"/>
			<circle cx="913" cy="234.2" r="1.4"/>
			<circle cx="913" cy="242.2" r="1.4"/>
			<circle cx="918.4" cy="230.1" r="1.4"/>
			<circle cx="918.4" cy="238.1" r="1.4"/>
			<circle cx="923.8" cy="226.3" r="1.4"/>
			<circle cx="913" cy="218.4" r="1.4"/>
			<circle cx="918.4" cy="198.3" r="1.4"/>
			<circle cx="918.4" cy="206.3" r="1.4"/>
			<circle cx="918.4" cy="214.3" r="1.4"/>
			<circle cx="918.4" cy="222.2" r="1.4"/>
			<circle cx="923.8" cy="178.6" r="1.4"/>
			<circle cx="923.8" cy="186.5" r="1.4"/>
			<circle cx="923.8" cy="194.5" r="1.4"/>
			<circle cx="923.8" cy="202.4" r="1.4"/>
			<circle cx="923.8" cy="210.4" r="1.4"/>
			<circle cx="923.8" cy="218.4" r="1.4"/>
			<circle cx="929.1" cy="182.4" r="1.4"/>
			<circle cx="929.1" cy="190.4" r="1.4"/>
			<circle cx="929.1" cy="198.3" r="1.4"/>
			<circle cx="939.7" cy="198.3" r="1.4"/>
			<circle cx="929.1" cy="206.3" r="1.4"/>
			<circle cx="929.1" cy="214.3" r="1.4"/>
			<circle cx="929.1" cy="222.2" r="1.4"/>
			<circle cx="934.5" cy="178.6" r="1.4"/>
			<circle cx="934.5" cy="186.5" r="1.4"/>
			<circle cx="934.5" cy="194.5" r="1.4"/>
			<circle cx="934.5" cy="202.4" r="1.4"/>
			<circle cx="934.5" cy="210.4" r="1.4"/>
			<circle cx="939.7" cy="182.4" r="1.4"/>
			<circle cx="939.7" cy="190.4" r="1.4"/>
		</g>
	</g>
	<g>
		<line class="st8" x1="94.4" y1="152.8" x2="265.8" y2="152.8"/>
		<line class="st8" x1="121.4" y1="248.7" x2="121.4" y2="154"/>
		<line class="st8" x1="243.5" y1="154" x2="243.5" y2="248.7"/>
		<rect x="143.9" y="202.1" class="st8" width="79" height="28.4"/>
		<path class="st8" d="M140.7,152.8c6.5-17.3,23.2-29.6,42.7-29.6c18.9,0,35.1,11.5,42,27.9"/>
		<polyline class="st8" points="183.4,123.1 183.4,110.1 253,110.1 253,94 234,94 234,109.7 		"/>
		<circle class="st12" cx="182.1" cy="216.3" r="4.6"/>
		<g>
			<circle cx="224.3" cy="231.4" r="1.4"/>
			<circle cx="224.3" cy="239.3" r="1.4"/>
			<circle cx="224.3" cy="247.3" r="1.4"/>
			<circle cx="229.7" cy="227.5" r="1.4"/>
			<circle cx="229.7" cy="235.5" r="1.4"/>
			<circle cx="229.7" cy="243.4" r="1.4"/>
			<circle cx="235.1" cy="231.4" r="1.4"/>
			<circle cx="235.1" cy="239.3" r="1.4"/>
			<circle cx="235.1" cy="247.3" r="1.4"/>
			<circle cx="240.5" cy="227.5" r="1.4"/>
			<circle cx="240.5" cy="235.5" r="1.4"/>
			<circle cx="240.5" cy="243.4" r="1.4"/>
			<circle cx="224.3" cy="159.7" r="1.4"/>
			<circle cx="224.3" cy="167.7" r="1.4"/>
			<circle cx="224.3" cy="175.7" r="1.4"/>
			<circle cx="224.3" cy="183.6" r="1.4"/>
			<circle cx="224.3" cy="191.6" r="1.4"/>
			<circle cx="224.3" cy="199.6" r="1.4"/>
			<circle cx="224.3" cy="207.5" r="1.4"/>
			<circle cx="224.3" cy="215.5" r="1.4"/>
			<circle cx="224.3" cy="223.4" r="1.4"/>
			<circle cx="229.7" cy="155.9" r="1.4"/>
			<circle cx="229.7" cy="163.8" r="1.4"/>
			<circle cx="229.7" cy="171.8" r="1.4"/>
			<circle cx="229.7" cy="179.8" r="1.4"/>
			<circle cx="229.7" cy="187.7" r="1.4"/>
			<circle cx="229.7" cy="195.7" r="1.4"/>
			<circle cx="229.7" cy="203.7" r="1.4"/>
			<circle cx="229.7" cy="211.6" r="1.4"/>
			<circle cx="229.7" cy="219.6" r="1.4"/>
			<circle cx="235.1" cy="159.7" r="1.4"/>
			<circle cx="235.1" cy="167.7" r="1.4"/>
			<circle cx="235.1" cy="175.7" r="1.4"/>
			<circle cx="235.1" cy="183.6" r="1.4"/>
			<circle cx="235.1" cy="191.6" r="1.4"/>
			<circle cx="235.1" cy="199.6" r="1.4"/>
			<circle cx="235.1" cy="207.5" r="1.4"/>
			<circle cx="235.1" cy="215.5" r="1.4"/>
			<circle cx="235.1" cy="223.4" r="1.4"/>
			<circle cx="240.5" cy="155.9" r="1.4"/>
			<circle cx="240.5" cy="163.8" r="1.4"/>
			<circle cx="240.5" cy="171.8" r="1.4"/>
			<circle cx="240.5" cy="179.8" r="1.4"/>
			<circle cx="240.5" cy="187.7" r="1.4"/>
			<circle cx="240.5" cy="195.7" r="1.4"/>
			<circle cx="240.5" cy="203.7" r="1.4"/>
			<circle cx="240.5" cy="211.6" r="1.4"/>
			<circle cx="240.5" cy="219.6" r="1.4"/>
		</g>
		<g>
			<circle cx="218.9" cy="235.5" r="1.4"/>
			<circle cx="218.9" cy="243.4" r="1.4"/>
			<circle cx="218.9" cy="155.9" r="1.4"/>
			<circle cx="218.9" cy="163.8" r="1.4"/>
			<circle cx="218.9" cy="171.8" r="1.4"/>
			<circle cx="218.9" cy="179.8" r="1.4"/>
			<circle cx="218.9" cy="187.7" r="1.4"/>
			<circle cx="218.9" cy="195.7" r="1.4"/>
		</g>
		<circle cx="183.8" cy="126" r="1.4"/>
		<circle cx="189.1" cy="129.9" r="1.4"/>
		<circle cx="194.5" cy="126" r="1.4"/>
		<circle cx="194.5" cy="134" r="1.4"/>
		<circle cx="199.8" cy="129.9" r="1.4"/>
		<circle cx="199.8" cy="137.8" r="1.4"/>
		<circle cx="199.8" cy="145.8" r="1.4"/>
		<circle cx="205.1" cy="134" r="1.4"/>
		<circle cx="205.1" cy="141.9" r="1.4"/>
		<circle cx="205.1" cy="149.9" r="1.4"/>
		<circle cx="210.5" cy="137.8" r="1.4"/>
		<circle cx="210.5" cy="145.8" r="1.4"/>
		<circle cx="215.9" cy="141.9" r="1.4"/>
		<circle cx="215.9" cy="149.9" r="1.4"/>
		<circle cx="221.2" cy="145.8" r="1.4"/>
	</g>
	<g>
		<g>
			<circle cx="632.1" cy="243" r="1.7"/>
			<circle cx="638.5" cy="247.6" r="1.7"/>
			<circle cx="645.1" cy="243" r="1.7"/>
			<circle cx="651.5" cy="247.6" r="1.7"/>
			<circle cx="658" cy="243" r="1.7"/>
			<circle cx="664.5" cy="247.6" r="1.7"/>
			<circle cx="671" cy="243" r="1.7"/>
			<circle cx="677.6" cy="247.6" r="1.7"/>
			<circle cx="684.2" cy="243" r="1.7"/>
			<circle cx="690.6" cy="247.6" r="1.7"/>
			<circle cx="697.2" cy="243" r="1.7"/>
			<circle cx="625.5" cy="228.3" r="1.7"/>
			<circle cx="625.5" cy="238" r="1.7"/>
			<circle cx="632.1" cy="223.6" r="1.7"/>
			<circle cx="632.1" cy="233.3" r="1.7"/>
			<circle cx="638.5" cy="199.2" r="1.7"/>
			<circle cx="638.5" cy="208.9" r="1.7"/>
			<circle cx="638.5" cy="218.6" r="1.7"/>
			<circle cx="638.5" cy="228.3" r="1.7"/>
			<circle cx="638.5" cy="238" r="1.7"/>
			<circle cx="645.1" cy="204.2" r="1.7"/>
			<circle cx="645.1" cy="213.9" r="1.7"/>
			<circle cx="645.1" cy="223.6" r="1.7"/>
			<circle cx="645.1" cy="233.3" r="1.7"/>
			<circle cx="651.5" cy="199.2" r="1.7"/>
			<circle cx="651.5" cy="208.9" r="1.7"/>
			<circle cx="651.5" cy="218.6" r="1.7"/>
			<circle cx="651.5" cy="228.3" r="1.7"/>
			<circle cx="651.5" cy="238" r="1.7"/>
			<circle cx="658" cy="204.2" r="1.7"/>
			<circle cx="658" cy="213.9" r="1.7"/>
			<circle cx="658" cy="223.6" r="1.7"/>
			<circle cx="658" cy="233.3" r="1.7"/>
			<circle cx="664.5" cy="199.2" r="1.7"/>
			<circle cx="664.5" cy="208.9" r="1.7"/>
			<circle cx="664.5" cy="218.6" r="1.7"/>
			<circle cx="664.5" cy="228.3" r="1.7"/>
			<circle cx="664.5" cy="238" r="1.7"/>
			<circle cx="671" cy="204.2" r="1.7"/>
			<circle cx="671" cy="213.9" r="1.7"/>
			<circle cx="671" cy="223.6" r="1.7"/>
			<circle cx="671" cy="233.3" r="1.7"/>
			<circle cx="677.6" cy="199.2" r="1.7"/>
			<circle cx="677.6" cy="208.9" r="1.7"/>
			<circle cx="677.6" cy="218.6" r="1.7"/>
			<circle cx="677.6" cy="228.3" r="1.7"/>
			<circle cx="677.6" cy="238" r="1.7"/>
			<circle cx="684.2" cy="204.2" r="1.7"/>
			<circle cx="684.2" cy="213.9" r="1.7"/>
			<circle cx="684.2" cy="223.6" r="1.7"/>
			<circle cx="684.2" cy="233.3" r="1.7"/>
			<circle cx="690.6" cy="199.2" r="1.7"/>
			<circle cx="690.6" cy="208.9" r="1.7"/>
			<circle cx="690.6" cy="218.6" r="1.7"/>
			<circle cx="690.6" cy="228.3" r="1.7"/>
			<circle cx="690.6" cy="238" r="1.7"/>
			<circle cx="697.2" cy="204.2" r="1.7"/>
			<circle cx="697.2" cy="213.9" r="1.7"/>
			<circle cx="697.2" cy="223.6" r="1.7"/>
			<circle cx="697.2" cy="233.3" r="1.7"/>
			<circle cx="703.5" cy="247.6" r="1.7"/>
			<circle cx="710.1" cy="243" r="1.7"/>
			<circle cx="716.5" cy="247.6" r="1.7"/>
			<circle cx="723.1" cy="243" r="1.7"/>
			<circle cx="729.7" cy="247.6" r="1.7"/>
			<circle cx="736.2" cy="243" r="1.7"/>
			<circle cx="742.7" cy="247.6" r="1.7"/>
			<circle cx="749.2" cy="243" r="1.7"/>
			<circle cx="755.6" cy="247.6" r="1.7"/>
			<circle cx="762.2" cy="243" r="1.7"/>
			<circle cx="703.5" cy="199.2" r="1.7"/>
			<circle cx="703.5" cy="208.9" r="1.7"/>
			<circle cx="703.5" cy="218.6" r="1.7"/>
			<circle cx="703.5" cy="228.3" r="1.7"/>
			<circle cx="703.5" cy="238" r="1.7"/>
			<circle cx="710.1" cy="204.2" r="1.7"/>
			<circle cx="710.1" cy="213.9" r="1.7"/>
			<circle cx="710.1" cy="223.6" r="1.7"/>
			<circle cx="710.1" cy="233.3" r="1.7"/>
			<circle cx="716.5" cy="199.2" r="1.7"/>
			<circle cx="716.5" cy="208.9" r="1.7"/>
			<circle cx="716.5" cy="218.6" r="1.7"/>
			<circle cx="716.5" cy="228.3" r="1.7"/>
			<circle cx="716.5" cy="238" r="1.7"/>
			<circle cx="723.1" cy="204.2" r="1.7"/>
			<circle cx="723.1" cy="213.9" r="1.7"/>
			<circle cx="723.1" cy="223.6" r="1.7"/>
			<circle cx="723.1" cy="233.3" r="1.7"/>
			<circle cx="729.7" cy="199.2" r="1.7"/>
			<circle cx="729.7" cy="208.9" r="1.7"/>
			<circle cx="729.7" cy="218.6" r="1.7"/>
			<circle cx="729.7" cy="228.3" r="1.7"/>
			<circle cx="729.7" cy="238" r="1.7"/>
			<circle cx="736.2" cy="204.2" r="1.7"/>
			<circle cx="736.2" cy="213.9" r="1.7"/>
			<circle cx="736.2" cy="223.6" r="1.7"/>
			<circle cx="736.2" cy="233.3" r="1.7"/>
			<circle cx="742.7" cy="199.2" r="1.7"/>
			<circle cx="742.7" cy="208.9" r="1.7"/>
			<circle cx="742.7" cy="218.6" r="1.7"/>
			<circle cx="742.7" cy="228.3" r="1.7"/>
			<circle cx="742.7" cy="238" r="1.7"/>
			<circle cx="749.2" cy="204.2" r="1.7"/>
			<circle cx="749.2" cy="213.9" r="1.7"/>
			<circle cx="749.2" cy="223.6" r="1.7"/>
			<circle cx="749.2" cy="233.3" r="1.7"/>
			<circle cx="755.6" cy="199.2" r="1.7"/>
			<circle cx="755.6" cy="208.9" r="1.7"/>
			<circle cx="755.6" cy="218.6" r="1.7"/>
			<circle cx="755.6" cy="228.3" r="1.7"/>
			<circle cx="755.6" cy="238" r="1.7"/>
			<circle cx="762.2" cy="223.6" r="1.7"/>
			<circle cx="762.2" cy="233.3" r="1.7"/>
			<circle cx="768.6" cy="238" r="1.7"/>
		</g>
		<polygon class="st13" points="631.1,43.3 756.9,43.3 716.2,119.2 673.1,119.2 		"/>
		<polyline class="st13" points="716.2,119.2 757.2,132.5 634.5,132.5 673.1,119.2 		"/>
		<path class="st13" d="M749.6,58.6c0,0,19.8-5.7,22.5,10.4c1.9,11.6-8.2,20.2-17.4,23.7c-8.1,3.1-17.1,5.4-25.8,4.4"/>
		<path class="st13" d="M656.5,132.5c-4.8,0-9.1,5.1-8.1,10.1c0.4,1.8,1.5,3.1,2,4.8c1,3.3-0.8,6.5-3.5,8.1c0.1,0-2.6,1.7-4.3,4
			c-1.6,2.2-2.2,5.3-1.8,8.1c0.5,3.8,3.7,7.1,2.5,11.1c-1.2,4-5.4,5.3-8.2,7.7c-5.3,4.7-6.7,13.2-3.1,19.4c-0.1-0.2-0.2-0.3-0.3-0.5
			c3,5,1.9,12-2.6,15.5c0.1-0.1,0.3-0.2,0.4-0.3c-5.9,4.1-7.7,12-5.6,18.5"/>
		<path class="st13" d="M769.6,235.2c0.4-5.7-2.2-11.5-6.8-14.6c0.3,0.2,0.6,0.4,0.9,0.7c-2.9-2.2-4.7-6-4.6-9.8
			c0.2-4.8,3.6-8.5,3.5-13.3c0-6.2-3.7-11.8-9.3-14c0.1,0,0.3,0.1,0.5,0.1c-4.8-1.8-5.8-7.4-3.5-11.8c4.1-5.8-0.1-15-5.9-17.3
			c0.2,0.1,0.3,0.1,0.5,0.2c-3.5-1.9-4.1-6-2.2-9.4c-0.1,0.1-0.1,0.1-0.2,0.2c4.8-5.3-0.5-13.6-6.5-13.6"/>
		<path class="st13" d="M769.6,234L769.6,234c0,8.3-6.4,14.9-14.2,14.9H637.4c-4.7,0-8.9-2.5-11.5-6.2c-0.9-1.3-1.6-2.8-2-4.3"/>
		<path class="st13" d="M743.2,150.6c13.2-0.2,27.5,5.7,34.9,16.9c8.4,12.7,10.8,32.4,1,45c-2.5,3.2-6.8,7.1-11.4,10"/>
	</g>
	<g>
		<g>
			<circle cx="302" cy="214.1" r="1.4"/>
			<circle cx="302" cy="222.2" r="1.4"/>
			<circle cx="302" cy="230.3" r="1.4"/>
			<circle cx="302" cy="238.4" r="1.4"/>
			<circle cx="302" cy="246.5" r="1.4"/>
			<circle cx="307.5" cy="210.2" r="1.4"/>
			<circle cx="307.5" cy="218.3" r="1.4"/>
			<circle cx="307.5" cy="226.4" r="1.4"/>
			<circle cx="307.5" cy="234.5" r="1.4"/>
			<circle cx="307.5" cy="242.6" r="1.4"/>
			<circle cx="312.9" cy="214.1" r="1.4"/>
			<circle cx="312.9" cy="222.2" r="1.4"/>
			<circle cx="312.9" cy="230.3" r="1.4"/>
			<circle cx="312.9" cy="238.4" r="1.4"/>
			<circle cx="312.9" cy="246.5" r="1.4"/>
			<circle cx="318.4" cy="210.2" r="1.4"/>
			<circle cx="318.4" cy="218.3" r="1.4"/>
			<circle cx="318.4" cy="226.4" r="1.4"/>
			<circle cx="318.4" cy="234.5" r="1.4"/>
			<circle cx="318.4" cy="242.6" r="1.4"/>
			<circle cx="323.7" cy="214.1" r="1.4"/>
			<circle cx="323.7" cy="222.2" r="1.4"/>
			<circle cx="323.7" cy="230.3" r="1.4"/>
			<circle cx="323.7" cy="238.4" r="1.4"/>
			<circle cx="323.7" cy="246.5" r="1.4"/>
			<circle cx="329.2" cy="210.2" r="1.4"/>
			<circle cx="329.2" cy="218.3" r="1.4"/>
			<circle cx="329.2" cy="226.4" r="1.4"/>
			<circle cx="329.2" cy="234.5" r="1.4"/>
			<circle cx="329.2" cy="242.6" r="1.4"/>
			<circle cx="334.5" cy="214.1" r="1.4"/>
			<circle cx="334.5" cy="222.2" r="1.4"/>
			<circle cx="334.5" cy="230.3" r="1.4"/>
			<circle cx="334.5" cy="238.4" r="1.4"/>
			<circle cx="334.5" cy="246.5" r="1.4"/>
			<circle cx="340" cy="210.2" r="1.4"/>
			<circle cx="340" cy="218.3" r="1.4"/>
			<circle cx="340" cy="226.4" r="1.4"/>
			<circle cx="340" cy="234.5" r="1.4"/>
			<circle cx="340" cy="242.6" r="1.4"/>
			<circle cx="345.5" cy="214.1" r="1.4"/>
			<circle cx="345.5" cy="222.2" r="1.4"/>
			<circle cx="345.5" cy="230.3" r="1.4"/>
			<circle cx="345.5" cy="238.4" r="1.4"/>
			<circle cx="345.5" cy="246.5" r="1.4"/>
			<circle cx="351" cy="210.2" r="1.4"/>
			<circle cx="351" cy="218.3" r="1.4"/>
			<circle cx="351" cy="226.4" r="1.4"/>
			<circle cx="351" cy="234.5" r="1.4"/>
			<circle cx="351" cy="242.6" r="1.4"/>
			<circle cx="356.4" cy="214.1" r="1.4"/>
			<circle cx="356.4" cy="222.2" r="1.4"/>
			<circle cx="356.4" cy="230.3" r="1.4"/>
			<circle cx="356.4" cy="238.4" r="1.4"/>
			<circle cx="356.4" cy="246.5" r="1.4"/>
			<circle cx="361.8" cy="210.2" r="1.4"/>
			<circle cx="361.8" cy="218.3" r="1.4"/>
			<circle cx="361.8" cy="226.4" r="1.4"/>
			<circle cx="361.8" cy="234.5" r="1.4"/>
			<circle cx="361.8" cy="242.6" r="1.4"/>
			<circle cx="367.2" cy="214.1" r="1.4"/>
			<circle cx="367.2" cy="222.2" r="1.4"/>
			<circle cx="367.2" cy="230.3" r="1.4"/>
			<circle cx="367.2" cy="238.4" r="1.4"/>
			<circle cx="367.2" cy="246.5" r="1.4"/>
			<circle cx="372.7" cy="210.2" r="1.4"/>
			<circle cx="372.7" cy="218.3" r="1.4"/>
			<circle cx="372.7" cy="226.4" r="1.4"/>
			<circle cx="372.7" cy="234.5" r="1.4"/>
			<circle cx="372.7" cy="242.6" r="1.4"/>
			<circle cx="378" cy="214.1" r="1.4"/>
			<circle cx="378" cy="222.2" r="1.4"/>
			<circle cx="378" cy="230.3" r="1.4"/>
			<circle cx="378" cy="238.4" r="1.4"/>
			<circle cx="378" cy="246.5" r="1.4"/>
			<circle cx="383.5" cy="210.2" r="1.4"/>
			<circle cx="383.5" cy="218.3" r="1.4"/>
			<circle cx="383.5" cy="226.4" r="1.4"/>
			<circle cx="383.5" cy="234.5" r="1.4"/>
			<circle cx="383.5" cy="242.6" r="1.4"/>
			<circle cx="389" cy="214.1" r="1.4"/>
			<circle cx="389" cy="222.2" r="1.4"/>
			<circle cx="389" cy="230.3" r="1.4"/>
			<circle cx="389" cy="238.4" r="1.4"/>
			<circle cx="389" cy="246.5" r="1.4"/>
			<circle cx="394.5" cy="210.2" r="1.4"/>
			<circle cx="394.5" cy="218.3" r="1.4"/>
			<circle cx="394.5" cy="226.4" r="1.4"/>
			<circle cx="394.5" cy="234.5" r="1.4"/>
			<circle cx="394.5" cy="242.6" r="1.4"/>
			<circle cx="302" cy="198" r="1.4"/>
			<circle cx="302" cy="206.1" r="1.4"/>
			<circle cx="307.5" cy="194" r="1.4"/>
			<circle cx="307.5" cy="202.1" r="1.4"/>
			<circle cx="312.9" cy="198" r="1.4"/>
			<circle cx="312.9" cy="206.1" r="1.4"/>
			<circle cx="318.4" cy="194" r="1.4"/>
			<circle cx="318.4" cy="202.1" r="1.4"/>
			<circle cx="323.7" cy="198" r="1.4"/>
			<circle cx="323.7" cy="206.1" r="1.4"/>
			<circle cx="329.2" cy="194" r="1.4"/>
			<circle cx="329.2" cy="202.1" r="1.4"/>
			<circle cx="334.5" cy="198" r="1.4"/>
			<circle cx="334.5" cy="206.1" r="1.4"/>
			<circle cx="340" cy="194" r="1.4"/>
			<circle cx="340" cy="202.1" r="1.4"/>
			<circle cx="345.5" cy="198" r="1.4"/>
			<circle cx="345.5" cy="206.1" r="1.4"/>
			<circle cx="351" cy="194" r="1.4"/>
			<circle cx="351" cy="202.1" r="1.4"/>
			<circle cx="356.4" cy="198" r="1.4"/>
			<circle cx="356.4" cy="206.1" r="1.4"/>
			<circle cx="361.8" cy="194" r="1.4"/>
			<circle cx="361.8" cy="202.1" r="1.4"/>
			<circle cx="367.2" cy="198" r="1.4"/>
			<circle cx="367.2" cy="206.1" r="1.4"/>
			<circle cx="372.7" cy="194" r="1.4"/>
			<circle cx="372.7" cy="202.1" r="1.4"/>
			<circle cx="378" cy="198" r="1.4"/>
			<circle cx="378" cy="206.1" r="1.4"/>
			<circle cx="383.5" cy="194" r="1.4"/>
			<circle cx="383.5" cy="202.1" r="1.4"/>
			<circle cx="389" cy="198" r="1.4"/>
			<circle cx="389" cy="206.1" r="1.4"/>
			<circle cx="394.5" cy="194" r="1.4"/>
			<circle cx="394.5" cy="202.1" r="1.4"/>
		</g>
		<polygon class="st13" points="397.5,249 299,249 299,71.9 281.6,50.7 397.5,50.7 		"/>
		<line class="st13" x1="348.3" y1="26.5" x2="348.3" y2="185.9"/>
		<line class="st13" x1="310.7" y1="38.4" x2="385.8" y2="38.4"/>
		<circle class="st13" cx="348.3" cy="17.9" r="8.6"/>
		<line class="st15" x1="321.7" y1="185.9" x2="374.8" y2="185.9"/>
		<path class="st13" d="M397.5,78.6h23c10.2,0,18.4,9.1,18.4,20.4v59.6c0,11.3-8.3,20.4-18.4,20.4h-23"/>
	</g>
	<g>
		<g>
			<circle cx="463.1" cy="222.3" r="1.7"/>
			<circle cx="463.1" cy="232" r="1.7"/>
			<circle cx="463.1" cy="241.8" r="1.7"/>
			<circle cx="469.7" cy="207.8" r="1.7"/>
			<circle cx="469.7" cy="217.6" r="1.7"/>
			<circle cx="469.7" cy="227.3" r="1.7"/>
			<circle cx="469.7" cy="237" r="1.7"/>
			<circle cx="469.7" cy="246.8" r="1.7"/>
			<circle cx="476.1" cy="193.1" r="1.7"/>
			<circle cx="476.1" cy="202.8" r="1.7"/>
			<circle cx="476.1" cy="212.5" r="1.7"/>
			<circle cx="476.1" cy="222.3" r="1.7"/>
			<circle cx="476.1" cy="232" r="1.7"/>
			<circle cx="476.1" cy="241.8" r="1.7"/>
			<circle cx="482.7" cy="198.1" r="1.7"/>
			<circle cx="482.7" cy="207.8" r="1.7"/>
			<circle cx="482.7" cy="217.6" r="1.7"/>
			<circle cx="482.7" cy="227.3" r="1.7"/>
			<circle cx="482.7" cy="237" r="1.7"/>
			<circle cx="482.7" cy="246.8" r="1.7"/>
			<circle cx="489.2" cy="193.1" r="1.7"/>
			<circle cx="489.2" cy="202.8" r="1.7"/>
			<circle cx="489.2" cy="212.5" r="1.7"/>
			<circle cx="489.2" cy="222.3" r="1.7"/>
			<circle cx="489.2" cy="232" r="1.7"/>
			<circle cx="489.2" cy="241.8" r="1.7"/>
			<circle cx="495.8" cy="198.1" r="1.7"/>
			<circle cx="495.8" cy="207.8" r="1.7"/>
			<circle cx="495.8" cy="217.6" r="1.7"/>
			<circle cx="495.8" cy="227.3" r="1.7"/>
			<circle cx="495.8" cy="237" r="1.7"/>
			<circle cx="495.8" cy="246.8" r="1.7"/>
			<circle cx="502.2" cy="193.1" r="1.7"/>
			<circle cx="502.2" cy="202.8" r="1.7"/>
			<circle cx="502.2" cy="212.5" r="1.7"/>
			<circle cx="502.2" cy="222.3" r="1.7"/>
			<circle cx="502.2" cy="232" r="1.7"/>
			<circle cx="502.2" cy="241.8" r="1.7"/>
			<circle cx="508.8" cy="198.1" r="1.7"/>
			<circle cx="508.8" cy="207.8" r="1.7"/>
			<circle cx="508.8" cy="217.6" r="1.7"/>
			<circle cx="508.8" cy="227.3" r="1.7"/>
			<circle cx="508.8" cy="237" r="1.7"/>
			<circle cx="508.8" cy="246.8" r="1.7"/>
			<circle cx="515.4" cy="193.1" r="1.7"/>
			<circle cx="515.4" cy="202.8" r="1.7"/>
			<circle cx="515.4" cy="212.5" r="1.7"/>
			<circle cx="515.4" cy="222.3" r="1.7"/>
			<circle cx="515.4" cy="232" r="1.7"/>
			<circle cx="515.4" cy="241.8" r="1.7"/>
			<circle cx="522" cy="198.1" r="1.7"/>
			<circle cx="522" cy="207.8" r="1.7"/>
			<circle cx="522" cy="217.6" r="1.7"/>
			<circle cx="522" cy="227.3" r="1.7"/>
			<circle cx="522" cy="237" r="1.7"/>
			<circle cx="522" cy="246.8" r="1.7"/>
			<circle cx="528.5" cy="193.1" r="1.7"/>
			<circle cx="528.5" cy="202.8" r="1.7"/>
			<circle cx="528.5" cy="212.5" r="1.7"/>
			<circle cx="528.5" cy="222.3" r="1.7"/>
			<circle cx="528.5" cy="232" r="1.7"/>
			<circle cx="528.5" cy="241.8" r="1.7"/>
			<circle cx="535.1" cy="198.1" r="1.7"/>
			<circle cx="535.1" cy="207.8" r="1.7"/>
			<circle cx="535.1" cy="217.6" r="1.7"/>
			<circle cx="535.1" cy="227.3" r="1.7"/>
			<circle cx="535.1" cy="237" r="1.7"/>
			<circle cx="535.1" cy="246.8" r="1.7"/>
			<circle cx="541.5" cy="193.1" r="1.7"/>
			<circle cx="541.5" cy="202.8" r="1.7"/>
			<circle cx="541.5" cy="212.5" r="1.7"/>
			<circle cx="541.5" cy="222.3" r="1.7"/>
			<circle cx="541.5" cy="232" r="1.7"/>
			<circle cx="541.5" cy="241.8" r="1.7"/>
			<circle cx="548.1" cy="198.1" r="1.7"/>
			<circle cx="548.1" cy="207.8" r="1.7"/>
			<circle cx="548.1" cy="217.6" r="1.7"/>
			<circle cx="548.1" cy="227.3" r="1.7"/>
			<circle cx="548.1" cy="237" r="1.7"/>
			<circle cx="548.1" cy="246.8" r="1.7"/>
			<circle cx="554.6" cy="193.1" r="1.7"/>
			<circle cx="554.6" cy="202.8" r="1.7"/>
			<circle cx="554.6" cy="212.5" r="1.7"/>
			<circle cx="554.6" cy="222.3" r="1.7"/>
			<circle cx="554.6" cy="232" r="1.7"/>
			<circle cx="554.6" cy="241.8" r="1.7"/>
			<circle cx="561.2" cy="198.1" r="1.7"/>
			<circle cx="561.2" cy="207.8" r="1.7"/>
			<circle cx="561.2" cy="217.6" r="1.7"/>
			<circle cx="561.2" cy="227.3" r="1.7"/>
			<circle cx="561.2" cy="237" r="1.7"/>
			<circle cx="561.2" cy="246.8" r="1.7"/>
			<circle cx="567.8" cy="193.1" r="1.7"/>
			<circle cx="567.8" cy="202.8" r="1.7"/>
			<circle cx="567.8" cy="212.5" r="1.7"/>
			<circle cx="567.8" cy="222.3" r="1.7"/>
			<circle cx="567.8" cy="232" r="1.7"/>
			<circle cx="567.8" cy="241.8" r="1.7"/>
			<circle cx="574.4" cy="198.1" r="1.7"/>
			<circle cx="574.4" cy="207.8" r="1.7"/>
			<circle cx="574.4" cy="217.6" r="1.7"/>
			<circle cx="574.4" cy="227.3" r="1.7"/>
			<circle cx="574.4" cy="237" r="1.7"/>
			<circle cx="574.4" cy="246.8" r="1.7"/>
			<circle cx="580.8" cy="193.1" r="1.7"/>
			<circle cx="580.8" cy="202.8" r="1.7"/>
			<circle cx="580.8" cy="212.5" r="1.7"/>
			<circle cx="580.8" cy="222.3" r="1.7"/>
			<circle cx="580.8" cy="232" r="1.7"/>
			<circle cx="580.8" cy="241.8" r="1.7"/>
			<circle cx="587.4" cy="207.8" r="1.7"/>
			<circle cx="587.4" cy="217.6" r="1.7"/>
			<circle cx="587.4" cy="227.3" r="1.7"/>
			<circle cx="587.4" cy="237" r="1.7"/>
			<circle cx="587.4" cy="246.8" r="1.7"/>
			<circle cx="593.8" cy="222.3" r="1.7"/>
			<circle cx="593.8" cy="232" r="1.7"/>
			<circle cx="593.8" cy="241.8" r="1.7"/>
		</g>
		<g>
			<polyline class="st13" points="498.5,79.1 468.5,27.4 582.2,27.4 558.8,79.1 			"/>
			<path class="st13" d="M485.1,93.2c2,2.2,4.5,4.2,6.1,6.1c3.9,4.4,6.3,9.9,6.3,15.8c0,5.7-2,10.5-5.7,14.9
				c-3.5,4.2-8.7,7.1-8.7,13c0,3.6,2.4,7.3,6.5,7.3h76.4c4.2,0,6.6-2.9,6.6-6.5c0-4.5-3.6-7-6.8-9.7c-3.6-3-6.1-6.1-7.6-10.5
				c-1-2.7-1.4-5.5-1.4-8.3c0-5.7,2.1-10.5,5.7-14.9c3.1-3.8,10.1-8.5,10.1-13.8c0-3.6-2.5-6.4-6.6-6.4h-76.4
				c-4.2,0-7.5,2.9-7.5,6.6C482,89.1,483.3,91.2,485.1,93.2z"/>
			<line class="st13" x1="490.4" y1="114" x2="562.9" y2="114"/>
			<path class="st13" d="M562.2,152.9c1.3,2.7,2.6,5.3,4,8c5.1,10,10,20.2,15,30.2c2.8,5.6,5.5,11.2,8,16.9
				c1.6,3.8,3.8,9.4,5.3,15.3c3.1,12.6,3.1,26.4-12.2,26.4h0c0,0-108.3,0-108.5,0c-15.3,0-15.3-13.8-12.2-26.4
				c1.5-5.9,3.7-11.6,5.3-15.3c2.4-5.8,5.2-11.3,8-16.9c5-10.1,9.9-20.2,15-30.2c1.3-2.7,2.6-5.3,4-8"/>
			<circle class="st13" cx="482.4" cy="114.4" r="6.1"/>
			<line class="st13" x1="482.2" y1="121.9" x2="467" y2="168.6"/>
			<line class="st13" x1="480" y1="120.5" x2="464.1" y2="147.4"/>
		</g>
	</g>
	<line class="st8" x1="19.5" y1="250" x2="1042.5" y2="250"/>
</g>
</svg>
