<svg xmlns="http://www.w3.org/2000/svg" viewBox="0 0 121.77 104.85"><defs><style>.cls-1{fill:none;stroke:#000;stroke-linecap:round;stroke-linejoin:round;stroke-width:4.44px;}</style></defs><title>high-quallity</title><g id="Layer_2" data-name="Layer 2"><g id="Layer_1-2" data-name="Layer 1"><polygon class="cls-1" points="62.2 102.63 2.22 31.74 28.92 2.22 92.48 2.22 119.55 31.74 62.2 102.63"/><line class="cls-1" x1="2.22" y1="31.74" x2="119.55" y2="31.74"/><polygon class="cls-1" points="62.2 102.63 85.52 31.74 92.48 2.22 61.83 2.22 85.52 31.74 39.26 31.74 62.2 102.63"/><polygon class="cls-1" points="61.83 2.22 39.26 31.74 28.92 2.22 61.83 2.22"/><circle cx="70.55" cy="79.34" r="1.17"/><circle cx="70.55" cy="86.08" r="1.17"/><circle cx="70.55" cy="92.82" r="1.17"/><circle cx="75.11" cy="69.33" r="1.17"/><circle cx="75.11" cy="76.07" r="1.17"/><circle cx="75.11" cy="82.81" r="1.17"/><circle cx="79.58" cy="65.86" r="1.17"/><circle cx="79.58" cy="72.6" r="1.17"/><circle cx="79.58" cy="79.34" r="1.17"/><circle cx="84.14" cy="62.59" r="1.17"/><circle cx="84.14" cy="69.33" r="1.17"/><circle cx="84.14" cy="76.07" r="1.17"/><circle cx="88.71" cy="65.86" r="1.17"/><circle cx="93.28" cy="62.59" r="1.17"/><circle cx="79.58" cy="59.14" r="1.17"/><circle cx="84.14" cy="55.87" r="1.17"/><circle cx="88.71" cy="52.4" r="1.17"/><circle cx="88.71" cy="59.14" r="1.17"/><circle cx="93.28" cy="49.13" r="1.17"/><circle cx="93.28" cy="55.87" r="1.17"/><circle cx="97.75" cy="52.4" r="1.17"/><circle cx="97.75" cy="59.14" r="1.17"/><circle cx="102.31" cy="49.13" r="1.17"/><circle cx="88.71" cy="45.7" r="1.17"/><circle cx="93.28" cy="15.48" r="1.17"/><circle cx="93.28" cy="22.22" r="1.17"/><circle cx="93.28" cy="35.7" r="1.17"/><circle cx="93.28" cy="42.44" r="1.17"/><circle cx="97.75" cy="18.75" r="1.17"/><circle cx="97.75" cy="25.49" r="1.17"/><circle cx="97.75" cy="32.22" r="1.17"/><circle cx="97.75" cy="38.96" r="1.17"/><circle cx="97.75" cy="45.7" r="1.17"/><circle cx="102.31" cy="15.48" r="1.17"/><circle cx="102.31" cy="22.22" r="1.17"/><circle cx="102.31" cy="28.96" r="1.17"/><circle cx="102.31" cy="35.7" r="1.17"/><circle cx="102.31" cy="42.44" r="1.17"/><circle cx="106.76" cy="18.75" r="1.17"/><circle cx="106.76" cy="25.49" r="1.17"/><circle cx="106.76" cy="32.22" r="1.17"/><circle cx="106.76" cy="38.96" r="1.17"/><circle cx="106.76" cy="45.7" r="1.17"/><circle cx="111.32" cy="22.22" r="1.17"/><circle cx="111.32" cy="28.96" r="1.17"/><circle cx="111.32" cy="35.7" r="1.17"/><circle cx="111.32" cy="42.44" r="1.17"/><circle cx="115.79" cy="32.22" r="1.17"/><circle cx="93.28" cy="8.75" r="1.17"/><circle cx="97.75" cy="12.02" r="1.17"/></g></g></svg>