<?xml version="1.0" encoding="utf-8"?>
<!-- Generator: Adobe Illustrator 21.1.0, SVG Export Plug-In . SVG Version: 6.00 Build 0)  -->
<svg version="1.1" id="Layer_1" xmlns="http://www.w3.org/2000/svg" xmlns:xlink="http://www.w3.org/1999/xlink" x="0px" y="0px"
	 viewBox="0 0 205.1 205.1" style="enable-background:new 0 0 205.1 205.1;" xml:space="preserve">
<style type="text/css">
	.st0{opacity:0.7;}
	.st1{opacity:0.25;}
	.st2{fill:#CFD1D3;}
	.st3{fill:#9CC184;}
	.st4{opacity:0.65;}
	.st5{fill:#FFFFFF;}
	.st6{fill:none;stroke:#9CC184;stroke-width:1.8258;stroke-miterlimit:10;}
	.st7{fill:none;stroke:#9CC184;stroke-width:1.8258;stroke-linecap:round;stroke-linejoin:round;stroke-miterlimit:10;}
	.st8{fill:none;stroke:#000000;stroke-width:4.4737;stroke-linecap:round;stroke-linejoin:round;stroke-miterlimit:10;}
	.st9{fill:none;stroke:#9CC184;stroke-width:1.0434;stroke-miterlimit:10;}
	.st10{fill:none;stroke:#9CC184;stroke-width:1.0434;stroke-linecap:round;stroke-linejoin:round;stroke-miterlimit:10;}
	.st11{fill:none;stroke:#000000;stroke-width:2.5567;stroke-linecap:round;stroke-linejoin:round;stroke-miterlimit:10;}
	.st12{fill:none;stroke:#000000;stroke-width:3.7281;stroke-linecap:round;stroke-linejoin:round;stroke-miterlimit:10;}
	.st13{fill:none;stroke:#000000;stroke-width:4.4743;stroke-linecap:round;stroke-linejoin:round;stroke-miterlimit:10;}
	.st14{fill:none;stroke:#3A3537;stroke-width:3.047;stroke-linecap:round;stroke-linejoin:round;stroke-miterlimit:10;}
	.st15{fill:none;stroke:#3A3537;stroke-width:3.4863;stroke-linecap:round;stroke-linejoin:round;stroke-miterlimit:10;}
	.st16{fill:none;stroke:#000000;stroke-width:2.363;stroke-linecap:round;stroke-linejoin:round;stroke-miterlimit:10;}
	.st17{fill:none;stroke:#000000;stroke-width:1.9692;stroke-linecap:round;stroke-linejoin:round;stroke-miterlimit:10;}
	.st18{fill:none;stroke:#000000;stroke-width:2.3633;stroke-linecap:round;stroke-linejoin:round;stroke-miterlimit:10;}
	.st19{fill:none;stroke:#3A3537;stroke-width:1.6094;stroke-linecap:round;stroke-linejoin:round;stroke-miterlimit:10;}
	.st20{fill:none;stroke:#3A3537;stroke-width:1.8414;stroke-linecap:round;stroke-linejoin:round;stroke-miterlimit:10;}
	.st21{fill:none;stroke:#FFFFFF;stroke-width:1.8258;stroke-linecap:round;stroke-linejoin:round;stroke-miterlimit:10;}
	.st22{fill:none;stroke:#FFFFFF;stroke-width:1.3527;stroke-linecap:round;stroke-linejoin:round;stroke-miterlimit:10;}
	.st23{opacity:0.5;}
	.st24{fill:none;stroke:#000000;stroke-width:2.5563;stroke-linecap:round;stroke-linejoin:round;stroke-miterlimit:10;}
	.st25{opacity:0.5;fill:#CFD1D3;}
	.st26{opacity:0.35;}
	.st27{opacity:0.25;fill:#CFD1D3;}
	.st28{opacity:0.85;fill:#9CC184;}
	.st29{fill:#55705A;}
	.st30{fill:none;stroke:#000000;stroke-width:2;stroke-linecap:round;stroke-linejoin:round;stroke-miterlimit:10;}
	.st31{clip-path:url(#SVGID_56_);}
	.st32{fill:none;stroke:#000000;stroke-width:4.437;stroke-linecap:round;stroke-linejoin:round;stroke-miterlimit:10;}
	.st33{clip-path:url(#SVGID_58_);}
	.st34{clip-path:url(#SVGID_60_);}
</style>
<circle class="st5" cx="102.6" cy="102.6" r="102.6"/>
<g>
	<defs>
		<circle id="SVGID_57_" cx="102.6" cy="102.6" r="102.6"/>
	</defs>
	<clipPath id="SVGID_2_">
		<use xlink:href="#SVGID_57_"  style="overflow:visible;"/>
	</clipPath>
	<g style="clip-path:url(#SVGID_2_);">
		<line class="st32" x1="202.4" y1="150.4" x2="4.4" y2="150.4"/>
		<g>
			<rect x="64.8" y="100.2" class="st32" width="77.9" height="50"/>
			<rect x="57.6" y="80.4" class="st32" width="91.7" height="19.8"/>
			<rect x="93.4" y="80.4" class="st32" width="20.1" height="69.8"/>
			<path class="st32" d="M103.7,80.4c0,0,7.2-36.2,25-27c0,0,8.6,4.8,4.8,15.1C129.9,78.9,103.7,80.4,103.7,80.4z"/>
			<path class="st32" d="M103.9,80.4c0,0-7.2-36.2-25-27c0,0-8.6,4.8-4.8,15.1C77.8,78.9,103.9,80.4,103.9,80.4z"/>
			<g>
				<circle cx="129.6" cy="120.2" r="1.2"/>
				<circle cx="129.6" cy="127" r="1.2"/>
				<circle cx="129.6" cy="133.7" r="1.2"/>
				<circle cx="129.6" cy="140.5" r="1.2"/>
				<circle cx="129.6" cy="147.2" r="1.2"/>
				<circle cx="134.2" cy="117" r="1.2"/>
				<circle cx="134.2" cy="123.7" r="1.2"/>
				<circle cx="134.2" cy="130.5" r="1.2"/>
				<circle cx="134.2" cy="137.2" r="1.2"/>
				<circle cx="134.2" cy="143.9" r="1.2"/>
				<circle cx="138.7" cy="120.2" r="1.2"/>
				<circle cx="138.7" cy="127" r="1.2"/>
				<circle cx="138.7" cy="133.7" r="1.2"/>
				<circle cx="138.7" cy="140.5" r="1.2"/>
				<circle cx="138.7" cy="147.2" r="1.2"/>
				<circle cx="143.2" cy="117" r="1.2"/>
				<circle cx="143.2" cy="123.7" r="1.2"/>
				<circle cx="143.2" cy="130.5" r="1.2"/>
				<circle cx="143.2" cy="137.2" r="1.2"/>
				<circle cx="143.2" cy="143.9" r="1.2"/>
				<circle cx="137.5" cy="84.7" r="1.2"/>
				<circle cx="137.5" cy="91.4" r="1.2"/>
				<circle cx="137.5" cy="98.1" r="1.2"/>
				<circle cx="142.1" cy="81.4" r="1.2"/>
				<circle cx="142.1" cy="88.1" r="1.2"/>
				<circle cx="142.1" cy="94.9" r="1.2"/>
				<circle cx="146.6" cy="84.7" r="1.2"/>
				<circle cx="146.6" cy="91.4" r="1.2"/>
				<circle cx="146.6" cy="98.1" r="1.2"/>
				<circle cx="129.6" cy="106.8" r="1.2"/>
				<circle cx="129.6" cy="113.5" r="1.2"/>
				<circle cx="134.2" cy="103.5" r="1.2"/>
				<circle cx="134.2" cy="110.3" r="1.2"/>
				<circle cx="138.7" cy="106.8" r="1.2"/>
				<circle cx="138.7" cy="113.5" r="1.2"/>
				<circle cx="143.2" cy="103.5" r="1.2"/>
				<circle cx="143.2" cy="110.3" r="1.2"/>
			</g>
		</g>
	</g>
</g>
</svg>
