<?xml version="1.0" encoding="utf-8"?>
<!-- Generator: Adobe Illustrator 21.1.0, SVG Export Plug-In . SVG Version: 6.00 Build 0)  -->
<svg version="1.1" id="Layer_1" xmlns="http://www.w3.org/2000/svg" xmlns:xlink="http://www.w3.org/1999/xlink" x="0px" y="0px"
	 viewBox="0 0 205.1 205.1" style="enable-background:new 0 0 205.1 205.1;" xml:space="preserve">
<style type="text/css">
	.st0{opacity:0.7;}
	.st1{opacity:0.25;}
	.st2{fill:#CFD1D3;}
	.st3{fill:#9CC184;}
	.st4{opacity:0.65;}
	.st5{fill:#FFFFFF;}
	.st6{fill:none;stroke:#9CC184;stroke-width:1.8258;stroke-miterlimit:10;}
	.st7{fill:none;stroke:#9CC184;stroke-width:1.8258;stroke-linecap:round;stroke-linejoin:round;stroke-miterlimit:10;}
	.st8{fill:none;stroke:#000000;stroke-width:4.4737;stroke-linecap:round;stroke-linejoin:round;stroke-miterlimit:10;}
	.st9{fill:none;stroke:#9CC184;stroke-width:1.0434;stroke-miterlimit:10;}
	.st10{fill:none;stroke:#9CC184;stroke-width:1.0434;stroke-linecap:round;stroke-linejoin:round;stroke-miterlimit:10;}
	.st11{fill:none;stroke:#000000;stroke-width:2.5567;stroke-linecap:round;stroke-linejoin:round;stroke-miterlimit:10;}
	.st12{fill:none;stroke:#000000;stroke-width:3.7281;stroke-linecap:round;stroke-linejoin:round;stroke-miterlimit:10;}
	.st13{fill:none;stroke:#000000;stroke-width:4.4743;stroke-linecap:round;stroke-linejoin:round;stroke-miterlimit:10;}
	.st14{fill:none;stroke:#3A3537;stroke-width:3.047;stroke-linecap:round;stroke-linejoin:round;stroke-miterlimit:10;}
	.st15{fill:none;stroke:#3A3537;stroke-width:3.4863;stroke-linecap:round;stroke-linejoin:round;stroke-miterlimit:10;}
	.st16{fill:none;stroke:#000000;stroke-width:2.363;stroke-linecap:round;stroke-linejoin:round;stroke-miterlimit:10;}
	.st17{fill:none;stroke:#000000;stroke-width:1.9692;stroke-linecap:round;stroke-linejoin:round;stroke-miterlimit:10;}
	.st18{fill:none;stroke:#000000;stroke-width:2.3633;stroke-linecap:round;stroke-linejoin:round;stroke-miterlimit:10;}
	.st19{fill:none;stroke:#3A3537;stroke-width:1.6094;stroke-linecap:round;stroke-linejoin:round;stroke-miterlimit:10;}
	.st20{fill:none;stroke:#3A3537;stroke-width:1.8414;stroke-linecap:round;stroke-linejoin:round;stroke-miterlimit:10;}
	.st21{fill:none;stroke:#FFFFFF;stroke-width:1.8258;stroke-linecap:round;stroke-linejoin:round;stroke-miterlimit:10;}
	.st22{fill:none;stroke:#FFFFFF;stroke-width:1.3527;stroke-linecap:round;stroke-linejoin:round;stroke-miterlimit:10;}
	.st23{opacity:0.5;}
	.st24{fill:none;stroke:#000000;stroke-width:2.5563;stroke-linecap:round;stroke-linejoin:round;stroke-miterlimit:10;}
	.st25{opacity:0.5;fill:#CFD1D3;}
	.st26{opacity:0.35;}
	.st27{opacity:0.25;fill:#CFD1D3;}
	.st28{opacity:0.85;fill:#9CC184;}
	.st29{fill:#55705A;}
	.st30{fill:none;stroke:#000000;stroke-width:2;stroke-linecap:round;stroke-linejoin:round;stroke-miterlimit:10;}
	.st31{clip-path:url(#SVGID_56_);}
	.st32{fill:none;stroke:#000000;stroke-width:4.437;stroke-linecap:round;stroke-linejoin:round;stroke-miterlimit:10;}
	.st33{clip-path:url(#SVGID_58_);}
	.st34{clip-path:url(#SVGID_60_);}
</style>
<circle class="st5" cx="102.6" cy="102.6" r="102.6"/>
<g>
	<polygon class="st32" points="104.2,160.3 44.2,89.4 70.9,59.9 134.5,59.9 161.5,89.4 	"/>
	<line class="st32" x1="44.2" y1="89.4" x2="161.5" y2="89.4"/>
	<polygon class="st32" points="104.2,160.3 127.5,89.4 134.5,59.9 103.8,59.9 127.5,89.4 81.2,89.4 	"/>
	<polygon class="st32" points="103.8,59.9 81.2,89.4 70.9,59.9 	"/>
	<g>
		<circle cx="112.5" cy="137" r="1.2"/>
		<circle cx="112.5" cy="143.8" r="1.2"/>
		<circle cx="112.5" cy="150.5" r="1.2"/>
		<circle cx="117.1" cy="127" r="1.2"/>
		<circle cx="117.1" cy="133.8" r="1.2"/>
		<circle cx="117.1" cy="140.5" r="1.2"/>
		<circle cx="121.6" cy="123.6" r="1.2"/>
		<circle cx="121.6" cy="130.3" r="1.2"/>
		<circle cx="121.6" cy="137" r="1.2"/>
		<circle cx="126.1" cy="120.3" r="1.2"/>
		<circle cx="126.1" cy="127" r="1.2"/>
		<circle cx="126.1" cy="133.8" r="1.2"/>
		<circle cx="130.7" cy="123.6" r="1.2"/>
		<circle cx="135.3" cy="120.3" r="1.2"/>
		<circle cx="121.6" cy="116.8" r="1.2"/>
		<circle cx="126.1" cy="113.6" r="1.2"/>
		<circle cx="130.7" cy="110.1" r="1.2"/>
		<circle cx="130.7" cy="116.8" r="1.2"/>
		<circle cx="135.3" cy="106.8" r="1.2"/>
		<circle cx="135.3" cy="113.6" r="1.2"/>
		<circle cx="139.7" cy="110.1" r="1.2"/>
		<circle cx="139.7" cy="116.8" r="1.2"/>
		<circle cx="144.3" cy="106.8" r="1.2"/>
	</g>
	<g>
		<circle cx="130.7" cy="103.4" r="1.2"/>
		<circle cx="135.3" cy="73.2" r="1.2"/>
		<circle cx="135.3" cy="79.9" r="1.2"/>
		<circle cx="135.3" cy="93.4" r="1.2"/>
		<circle cx="135.3" cy="100.1" r="1.2"/>
		<circle cx="139.7" cy="76.4" r="1.2"/>
		<circle cx="139.7" cy="83.2" r="1.2"/>
		<circle cx="139.7" cy="89.9" r="1.2"/>
		<circle cx="139.7" cy="96.7" r="1.2"/>
		<circle cx="139.7" cy="103.4" r="1.2"/>
		<circle cx="144.3" cy="73.2" r="1.2"/>
		<circle cx="144.3" cy="79.9" r="1.2"/>
		<circle cx="144.3" cy="86.7" r="1.2"/>
		<circle cx="144.3" cy="93.4" r="1.2"/>
		<circle cx="144.3" cy="100.1" r="1.2"/>
		<circle cx="148.7" cy="76.4" r="1.2"/>
		<circle cx="148.7" cy="83.2" r="1.2"/>
		<circle cx="148.7" cy="89.9" r="1.2"/>
		<circle cx="148.7" cy="96.7" r="1.2"/>
		<circle cx="148.7" cy="103.4" r="1.2"/>
		<circle cx="153.3" cy="79.9" r="1.2"/>
		<circle cx="153.3" cy="86.7" r="1.2"/>
		<circle cx="153.3" cy="93.4" r="1.2"/>
		<circle cx="153.3" cy="100.1" r="1.2"/>
		<circle cx="157.8" cy="89.9" r="1.2"/>
		<circle cx="135.3" cy="66.5" r="1.2"/>
		<circle cx="139.7" cy="69.7" r="1.2"/>
	</g>
</g>
</svg>
