<?xml version="1.0" encoding="utf-8"?>
<!-- Generator: Adobe Illustrator 21.1.0, SVG Export Plug-In . SVG Version: 6.00 Build 0)  -->
<svg version="1.1" id="Layer_1" xmlns="http://www.w3.org/2000/svg" xmlns:xlink="http://www.w3.org/1999/xlink" x="0px" y="0px"
	 viewBox="0 0 205.1 205.1" style="enable-background:new 0 0 205.1 205.1;" xml:space="preserve">
<style type="text/css">
	.st0{opacity:0.7;}
	.st1{opacity:0.25;}
	.st2{fill:#CFD1D3;}
	.st3{fill:#9CC184;}
	.st4{opacity:0.65;}
	.st5{fill:#FFFFFF;}
	.st6{fill:none;stroke:#9CC184;stroke-width:1.8258;stroke-miterlimit:10;}
	.st7{fill:none;stroke:#9CC184;stroke-width:1.8258;stroke-linecap:round;stroke-linejoin:round;stroke-miterlimit:10;}
	.st8{fill:none;stroke:#000000;stroke-width:4.4737;stroke-linecap:round;stroke-linejoin:round;stroke-miterlimit:10;}
	.st9{fill:none;stroke:#9CC184;stroke-width:1.0434;stroke-miterlimit:10;}
	.st10{fill:none;stroke:#9CC184;stroke-width:1.0434;stroke-linecap:round;stroke-linejoin:round;stroke-miterlimit:10;}
	.st11{fill:none;stroke:#000000;stroke-width:2.5567;stroke-linecap:round;stroke-linejoin:round;stroke-miterlimit:10;}
	.st12{fill:none;stroke:#000000;stroke-width:3.7281;stroke-linecap:round;stroke-linejoin:round;stroke-miterlimit:10;}
	.st13{fill:none;stroke:#000000;stroke-width:4.4743;stroke-linecap:round;stroke-linejoin:round;stroke-miterlimit:10;}
	.st14{fill:none;stroke:#3A3537;stroke-width:3.047;stroke-linecap:round;stroke-linejoin:round;stroke-miterlimit:10;}
	.st15{fill:none;stroke:#3A3537;stroke-width:3.4863;stroke-linecap:round;stroke-linejoin:round;stroke-miterlimit:10;}
	.st16{fill:none;stroke:#000000;stroke-width:2.363;stroke-linecap:round;stroke-linejoin:round;stroke-miterlimit:10;}
	.st17{fill:none;stroke:#000000;stroke-width:1.9692;stroke-linecap:round;stroke-linejoin:round;stroke-miterlimit:10;}
	.st18{fill:none;stroke:#000000;stroke-width:2.3633;stroke-linecap:round;stroke-linejoin:round;stroke-miterlimit:10;}
	.st19{fill:none;stroke:#3A3537;stroke-width:1.6094;stroke-linecap:round;stroke-linejoin:round;stroke-miterlimit:10;}
	.st20{fill:none;stroke:#3A3537;stroke-width:1.8414;stroke-linecap:round;stroke-linejoin:round;stroke-miterlimit:10;}
	.st21{fill:none;stroke:#FFFFFF;stroke-width:1.8258;stroke-linecap:round;stroke-linejoin:round;stroke-miterlimit:10;}
	.st22{fill:none;stroke:#FFFFFF;stroke-width:1.3527;stroke-linecap:round;stroke-linejoin:round;stroke-miterlimit:10;}
	.st23{opacity:0.5;}
	.st24{fill:none;stroke:#000000;stroke-width:2.5563;stroke-linecap:round;stroke-linejoin:round;stroke-miterlimit:10;}
	.st25{opacity:0.5;fill:#CFD1D3;}
	.st26{opacity:0.35;}
	.st27{opacity:0.25;fill:#CFD1D3;}
	.st28{opacity:0.85;fill:#9CC184;}
	.st29{fill:#55705A;}
	.st30{fill:none;stroke:#000000;stroke-width:2;stroke-linecap:round;stroke-linejoin:round;stroke-miterlimit:10;}
	.st31{clip-path:url(#SVGID_56_);}
	.st32{fill:none;stroke:#000000;stroke-width:4.437;stroke-linecap:round;stroke-linejoin:round;stroke-miterlimit:10;}
	.st33{clip-path:url(#SVGID_58_);}
	.st34{clip-path:url(#SVGID_60_);}
</style>
<circle class="st5" cx="102.6" cy="102.6" r="102.6"/>
<g>
	<defs>
		<circle id="SVGID_55_" cx="102.6" cy="102.6" r="102.6"/>
	</defs>
	<clipPath id="SVGID_2_">
		<use xlink:href="#SVGID_55_"  style="overflow:visible;"/>
	</clipPath>
	<g style="clip-path:url(#SVGID_2_);">
		<line class="st32" x1="65.6" y1="143.4" x2="7.4" y2="143.4"/>
		<polygon class="st32" points="124.4,158.3 65.6,143.3 65.6,49.3 124.4,37.9 		"/>
		<polyline class="st32" points="125.1,50.9 144.4,50.9 144.4,143.4 197.4,143.4 		"/>
		<circle cx="110.9" cy="100.6" r="2.7"/>
		<g>
			<circle cx="112.5" cy="120.6" r="1.2"/>
			<circle cx="112.5" cy="127.3" r="1.2"/>
			<circle cx="112.5" cy="134" r="1.2"/>
			<circle cx="117" cy="123.8" r="1.2"/>
			<circle cx="117" cy="130.5" r="1.2"/>
			<circle cx="117" cy="137.2" r="1.2"/>
			<circle cx="121.5" cy="120.6" r="1.2"/>
			<circle cx="121.5" cy="127.3" r="1.2"/>
			<circle cx="121.5" cy="134" r="1.2"/>
			<circle cx="112.5" cy="140.6" r="1.2"/>
			<circle cx="112.5" cy="147.3" r="1.2"/>
			<circle cx="117" cy="143.9" r="1.2"/>
			<circle cx="117" cy="150.5" r="1.2"/>
			<circle cx="121.5" cy="140.6" r="1.2"/>
			<circle cx="121.5" cy="147.3" r="1.2"/>
			<circle cx="112.5" cy="153.6" r="1.2"/>
			<circle cx="121.5" cy="153.6" r="1.2"/>
			<circle cx="112.5" cy="60.6" r="1.2"/>
			<circle cx="112.5" cy="67.3" r="1.2"/>
			<circle cx="112.5" cy="73.9" r="1.2"/>
			<circle cx="112.5" cy="80.6" r="1.2"/>
			<circle cx="112.5" cy="87.3" r="1.2"/>
			<circle cx="112.5" cy="94" r="1.2"/>
			<circle cx="112.5" cy="107.3" r="1.2"/>
			<circle cx="112.5" cy="114" r="1.2"/>
			<circle cx="117" cy="63.8" r="1.2"/>
			<circle cx="117" cy="70.5" r="1.2"/>
			<circle cx="117" cy="77.2" r="1.2"/>
			<circle cx="117" cy="83.8" r="1.2"/>
			<circle cx="117" cy="90.5" r="1.2"/>
			<circle cx="117" cy="97.2" r="1.2"/>
			<circle cx="117" cy="103.9" r="1.2"/>
			<circle cx="117" cy="110.5" r="1.2"/>
			<circle cx="117" cy="117.2" r="1.2"/>
			<circle cx="121.5" cy="60.6" r="1.2"/>
			<circle cx="121.5" cy="67.3" r="1.2"/>
			<circle cx="112.5" cy="47.2" r="1.2"/>
			<circle cx="112.5" cy="53.9" r="1.2"/>
			<circle cx="117" cy="50.4" r="1.2"/>
			<circle cx="117" cy="57.1" r="1.2"/>
			<circle cx="121.5" cy="47.2" r="1.2"/>
			<circle cx="117" cy="44" r="1.2"/>
			<circle cx="121.5" cy="40.7" r="1.2"/>
			<circle cx="121.5" cy="53.9" r="1.2"/>
			<circle cx="121.5" cy="73.9" r="1.2"/>
			<circle cx="121.5" cy="80.6" r="1.2"/>
			<circle cx="121.5" cy="87.3" r="1.2"/>
			<circle cx="121.5" cy="94" r="1.2"/>
			<circle cx="121.5" cy="100.6" r="1.2"/>
			<circle cx="121.5" cy="107.3" r="1.2"/>
			<circle cx="121.5" cy="114" r="1.2"/>
		</g>
	</g>
</g>
</svg>
