<svg xmlns="http://www.w3.org/2000/svg" viewBox="0 0 120.37 124.79"><defs><style>.cls-1{fill:none;stroke:#000;stroke-linecap:round;stroke-linejoin:round;stroke-width:4.44px;}</style></defs><title>personal-service</title><g id="Layer_2" data-name="Layer 2"><g id="Layer_1-2" data-name="Layer 1"><line class="cls-1" x1="20.36" y1="107.71" x2="2.22" y2="107.71"/><polygon class="cls-1" points="79.19 122.57 20.36 107.56 20.36 13.6 79.19 2.22 79.19 122.57"/><polyline class="cls-1" points="79.89 15.24 99.13 15.24 99.13 107.7 118.15 107.7"/><circle cx="65.66" cy="64.93" r="2.75"/><circle cx="67.24" cy="84.9" r="1.16"/><circle cx="67.24" cy="91.58" r="1.16"/><circle cx="67.24" cy="98.25" r="1.16"/><circle cx="71.77" cy="88.14" r="1.16"/><circle cx="71.77" cy="94.81" r="1.16"/><circle cx="71.77" cy="101.49" r="1.16"/><circle cx="76.29" cy="84.9" r="1.16"/><circle cx="76.29" cy="91.58" r="1.16"/><circle cx="76.29" cy="98.25" r="1.16"/><circle cx="67.24" cy="104.93" r="1.16"/><circle cx="67.24" cy="111.6" r="1.16"/><circle cx="71.77" cy="108.16" r="1.16"/><circle cx="71.77" cy="114.84" r="1.16"/><circle cx="76.29" cy="104.93" r="1.16"/><circle cx="76.29" cy="111.6" r="1.16"/><circle cx="67.24" cy="117.92" r="1.16"/><circle cx="76.29" cy="117.92" r="1.16"/><circle cx="67.24" cy="24.88" r="1.16"/><circle cx="67.24" cy="31.56" r="1.16"/><circle cx="67.24" cy="38.23" r="1.16"/><circle cx="67.24" cy="44.9" r="1.16"/><circle cx="67.24" cy="51.58" r="1.16"/><circle cx="67.24" cy="58.25" r="1.16"/><circle cx="67.24" cy="71.6" r="1.16"/><circle cx="67.24" cy="78.28" r="1.16"/><circle cx="71.77" cy="28.12" r="1.16"/><circle cx="71.77" cy="34.79" r="1.16"/><circle cx="71.77" cy="41.47" r="1.16"/><circle cx="71.77" cy="48.14" r="1.16"/><circle cx="71.77" cy="54.81" r="1.16"/><circle cx="71.77" cy="61.49" r="1.16"/><circle cx="71.77" cy="68.16" r="1.16"/><circle cx="71.77" cy="74.84" r="1.16"/><circle cx="71.77" cy="81.51" r="1.16"/><circle cx="76.29" cy="24.88" r="1.16"/><circle cx="76.29" cy="31.56" r="1.16"/><circle cx="67.24" cy="11.51" r="1.16"/><circle cx="67.24" cy="18.18" r="1.16"/><circle cx="71.77" cy="14.75" r="1.16"/><circle cx="71.77" cy="21.42" r="1.16"/><circle cx="76.29" cy="11.51" r="1.16"/><circle cx="71.77" cy="8.25" r="1.16"/><circle cx="76.29" cy="5.02" r="1.16"/><circle cx="76.29" cy="18.18" r="1.16"/><circle cx="76.29" cy="38.23" r="1.16"/><circle cx="76.29" cy="44.9" r="1.16"/><circle cx="76.29" cy="51.58" r="1.16"/><circle cx="76.29" cy="58.25" r="1.16"/><circle cx="76.29" cy="64.93" r="1.16"/><circle cx="76.29" cy="71.6" r="1.16"/><circle cx="76.29" cy="78.28" r="1.16"/></g></g></svg>